<svg width="113" height="116" viewBox="0 0 113 116" fill="none" xmlns="http://www.w3.org/2000/svg">
<style>
  svg {
    --flame-power: 0.7;
  }
  .flame {
    transform-box: fill-box;
    transform-origin: 50% 100%;
    opacity: var(--flame-power);
    transform: scale(1, calc(0.2 + 0.8 * var(--flame-power)));
    animation: flame-flicker calc(2.2s - 1.2s * var(--flame-power)) ease-in-out infinite;
  }
  @keyframes flame-flicker {
    0%, 100% { filter: brightness(1); }
    35% { filter: brightness(0.92); }
    60% { filter: brightness(0.86); }
    82% { filter: brightness(0.95); }
  }
  @media (prefers-reduced-motion: reduce) {
    .flame {
      animation: none;
    }
  }
</style>
<path d="M86.949 94.3904C73.3671 94.3904 62.3547 98.8892 62.3547 104.434C62.3547 109.978 73.3671 114.477 86.949 114.477C100.531 114.477 111.543 109.978 111.543 104.434C111.543 98.8892 100.531 94.3904 86.949 94.3904Z" fill="#999999" stroke="#999999" stroke-width="2.56102" stroke-miterlimit="10"/>
<path d="M108.783 96.0764L111.301 103.034H62.5864L65.109 96.0764H108.783Z" fill="#999999" stroke="#999999" stroke-width="2.56102" stroke-linecap="round" stroke-linejoin="round"/>
<path d="M86.9482 89.0084C74.5614 89.0084 64.5222 93.1103 64.5222 98.1683C64.5222 103.226 74.5614 107.328 86.9482 107.328C99.3349 107.328 109.374 103.226 109.374 98.1683C109.374 93.1103 99.3349 89.0084 86.9482 89.0084Z" fill="#B3B3B3"/>
<path d="M86.9482 89.0084C74.5614 89.0084 64.5222 93.1103 64.5222 98.1683C64.5222 103.226 74.5614 107.328 86.9482 107.328C99.3349 107.328 109.374 103.226 109.374 98.1683C109.374 93.1103 99.3349 89.0084 86.9482 89.0084Z" stroke="#B3B3B3" stroke-width="2.56102" stroke-linecap="round" stroke-linejoin="round"/>
<path d="M103.317 104.485C103.236 104.485 103.15 104.502 103.069 104.537C102.967 104.579 102.865 104.622 102.758 104.665C102.758 104.665 102.758 104.665 102.754 104.665C102.754 104.665 102.754 104.665 102.749 104.665C102.749 104.665 102.749 104.665 102.745 104.665C102.745 104.665 102.745 104.665 102.741 104.665C102.741 104.665 102.741 104.665 102.736 104.665C102.736 104.665 102.736 104.665 102.732 104.665C102.732 104.665 102.732 104.665 102.728 104.665C102.728 104.665 102.728 104.665 102.724 104.665C102.724 104.665 102.724 104.665 102.719 104.665C102.719 104.665 102.719 104.665 102.715 104.665C102.715 104.665 102.715 104.665 102.711 104.665C102.711 104.665 102.711 104.665 102.707 104.665C102.707 104.665 102.707 104.665 102.702 104.665C102.702 104.665 102.702 104.665 102.698 104.665C102.698 104.665 102.698 104.665 102.694 104.665C102.694 104.665 102.694 104.665 102.69 104.665C102.69 104.665 102.69 104.665 102.685 104.665C102.685 104.665 102.677 104.665 102.672 104.669C99.1596 106.06 94.5412 106.987 89.4021 107.204C89.3552 107.204 89.3082 107.204 89.257 107.209C89.1844 107.209 89.1119 107.213 89.0393 107.217C89.035 107.217 89.0265 107.217 89.0222 107.217C89.0222 107.217 89.018 107.217 89.0137 107.217C89.0137 107.217 89.0094 107.217 89.0052 107.217C89.0052 107.217 88.9923 107.217 88.9881 107.217C88.9881 107.217 88.9838 107.217 88.9795 107.217C88.9795 107.217 88.9753 107.217 88.971 107.217C88.971 107.217 88.9667 107.217 88.9625 107.217C88.9625 107.217 88.9582 107.217 88.9539 107.217C88.9539 107.217 88.9497 107.217 88.9454 107.217C88.9454 107.217 88.9411 107.217 88.9369 107.217C88.9369 107.217 88.9326 107.217 88.9283 107.217C88.9283 107.217 88.9241 107.217 88.9198 107.217C88.9198 107.217 88.9155 107.217 88.9112 107.217C88.9112 107.217 88.907 107.217 88.9027 107.217C88.9027 107.217 88.8984 107.217 88.8942 107.217C88.8942 107.217 88.8899 107.217 88.8856 107.217C88.8856 107.217 88.8814 107.217 88.8771 107.217C88.8771 107.217 88.8728 107.217 88.8686 107.217C88.8686 107.217 88.8643 107.217 88.86 107.217C88.86 107.217 88.8558 107.217 88.8515 107.217C88.8515 107.217 88.8472 107.217 88.843 107.217C88.843 107.217 88.8387 107.217 88.8344 107.217C88.7661 107.217 88.7021 107.217 88.6338 107.221C88.6338 107.221 88.6295 107.221 88.6253 107.221C88.6253 107.221 88.621 107.221 88.6167 107.221C88.6167 107.221 88.6125 107.221 88.6082 107.221C88.6082 107.221 88.6039 107.221 88.5997 107.221C88.5997 107.221 88.5954 107.221 88.5911 107.221C88.5911 107.221 88.5869 107.221 88.5826 107.221C88.5826 107.221 88.5783 107.221 88.574 107.221C88.574 107.221 88.5698 107.221 88.5655 107.221C88.5655 107.221 88.5612 107.221 88.557 107.221C88.557 107.221 88.5527 107.221 88.5484 107.221C88.5484 107.221 88.5442 107.221 88.5399 107.221C88.5399 107.221 88.5399 107.221 88.5314 107.221C88.5314 107.221 88.5271 107.221 88.5228 107.221C88.5228 107.221 88.5186 107.221 88.5143 107.221C88.5143 107.221 88.51 107.221 88.5058 107.221C88.5058 107.221 88.5015 107.221 88.4972 107.221C88.4972 107.221 88.493 107.221 88.4887 107.221C88.4887 107.221 88.4844 107.221 88.4801 107.221C88.4801 107.221 88.4759 107.221 88.4716 107.221C88.4716 107.221 88.4673 107.221 88.4631 107.221C88.4631 107.221 88.4588 107.221 88.4545 107.221C88.4545 107.221 88.4503 107.221 88.446 107.221C88.446 107.221 88.4417 107.221 88.4375 107.221C88.4375 107.221 88.4332 107.221 88.4289 107.221C88.4289 107.221 88.4247 107.221 88.4204 107.221C88.4204 107.221 88.4204 107.221 88.4161 107.221C88.4161 107.221 88.4119 107.221 88.4076 107.221C88.4076 107.221 88.4033 107.221 88.399 107.221C88.399 107.221 88.3862 107.221 88.382 107.221C88.382 107.221 88.3692 107.221 88.3649 107.221C88.3606 107.221 88.3521 107.221 88.3478 107.221C88.3436 107.221 88.335 107.221 88.3307 107.221C88.3265 107.221 88.3222 107.221 88.3137 107.221C88.3137 107.221 88.3137 107.221 88.3094 107.221C88.3094 107.221 88.3094 107.221 88.3051 107.221C88.3051 107.221 88.3051 107.221 88.3009 107.221C88.3009 107.221 88.3009 107.221 88.2966 107.221C88.2966 107.221 88.2966 107.221 88.2923 107.221C88.2923 107.221 88.2923 107.221 88.2881 107.221C88.2881 107.221 88.2881 107.221 88.2838 107.221C88.2838 107.221 88.2795 107.221 88.2753 107.221C88.2753 107.221 88.2753 107.221 88.271 107.221C88.271 107.221 88.271 107.221 88.2667 107.221C88.2667 107.221 88.2667 107.221 88.2625 107.221C88.2625 107.221 88.2625 107.221 88.2582 107.221C88.2582 107.221 88.2582 107.221 88.2539 107.221C88.2539 107.221 88.2539 107.221 88.2496 107.221C88.2496 107.221 88.2497 107.221 88.2454 107.221C88.2454 107.221 88.2454 107.221 88.2411 107.221H88.2368C88.2368 107.221 88.2369 107.221 88.2326 107.221C88.2326 107.221 88.2326 107.221 88.2283 107.221C88.2283 107.221 88.2283 107.221 88.224 107.221C88.224 107.221 88.224 107.221 88.2198 107.221C88.2198 107.221 88.2198 107.221 88.2155 107.221C88.2155 107.221 88.2155 107.221 88.2112 107.221C88.2112 107.221 88.2112 107.221 88.207 107.221C88.207 107.221 88.2027 107.221 88.1984 107.221C88.1984 107.221 88.1942 107.221 88.1899 107.221C88.1899 107.221 88.1856 107.221 88.1814 107.221C88.1814 107.221 88.1814 107.221 88.1728 107.221C88.1728 107.221 88.1728 107.221 88.1686 107.221C88.1686 107.221 88.1643 107.221 88.16 107.221C88.16 107.221 88.16 107.221 88.1515 107.221C88.1515 107.221 88.1472 107.221 88.1429 107.221C88.1429 107.221 88.1387 107.221 88.1344 107.221C88.1344 107.221 88.1301 107.221 88.1259 107.221C88.1259 107.221 88.1216 107.221 88.1173 107.221C88.1173 107.221 88.1131 107.221 88.1088 107.221C88.1088 107.221 88.1045 107.221 88.1003 107.221H88.096C88.096 107.221 88.096 107.221 88.0917 107.221C88.0917 107.221 88.0875 107.221 88.0832 107.221C88.0661 107.221 88.0448 107.221 88.0277 107.221C88.0277 107.221 88.0234 107.221 88.0192 107.221H88.0149C88.0106 107.221 88.0021 107.221 87.9978 107.221H87.9936H87.9893C87.9893 107.221 87.985 107.221 87.9808 107.221C87.9808 107.221 87.9807 107.221 87.9765 107.221C87.9765 107.221 87.9765 107.221 87.9722 107.221C87.9722 107.221 87.9722 107.221 87.9679 107.221C87.9679 107.221 87.9679 107.221 87.9637 107.221C87.9637 107.221 87.9637 107.221 87.9551 107.221C87.9551 107.221 87.9551 107.221 87.9509 107.221C87.9509 107.221 87.9509 107.221 87.9466 107.221C87.9466 107.221 87.9466 107.221 87.9423 107.221C87.9423 107.221 87.9423 107.221 87.9381 107.221C87.9381 107.221 87.9381 107.221 87.9338 107.221C87.9338 107.221 87.9338 107.221 87.9295 107.221C87.9295 107.221 87.9295 107.221 87.9253 107.221C87.9253 107.221 87.9253 107.221 87.921 107.221C87.921 107.221 87.921 107.221 87.9167 107.221H87.9125H87.9082C87.9082 107.221 87.9082 107.221 87.9039 107.221H87.8997C87.8997 107.221 87.8996 107.221 87.8954 107.221C87.8954 107.221 87.8954 107.221 87.8911 107.221C87.8911 107.221 87.8911 107.221 87.8868 107.221C87.8868 107.221 87.8868 107.221 87.8826 107.221C87.8826 107.221 87.8826 107.221 87.8783 107.221C87.8783 107.221 87.8783 107.221 87.874 107.221C87.874 107.221 87.874 107.221 87.8698 107.221C87.8698 107.221 87.8698 107.221 87.8655 107.221C87.8655 107.221 87.8655 107.221 87.8612 107.221C87.8612 107.221 87.8612 107.221 87.857 107.221C87.857 107.221 87.857 107.221 87.8527 107.221C87.8527 107.221 87.8527 107.221 87.8484 107.221C87.8484 107.221 87.8484 107.221 87.8442 107.221C87.8442 107.221 87.8442 107.221 87.8399 107.221H87.8356C87.8356 107.221 87.8356 107.221 87.8314 107.221H87.8271C87.8271 107.221 87.8271 107.221 87.8228 107.221C87.8228 107.221 87.8143 107.221 87.8057 107.221C87.8057 107.221 87.7929 107.221 87.7887 107.221H87.7844H87.7759C87.7759 107.221 87.7673 107.221 87.7631 107.221C87.7631 107.221 87.7631 107.221 87.7588 107.221C87.7588 107.221 87.7545 107.221 87.7503 107.221C87.7503 107.221 87.7503 107.221 87.7417 107.221C87.7417 107.221 87.7417 107.221 87.7332 107.221C87.7332 107.221 87.7332 107.221 87.7289 107.221C87.7247 107.221 87.7289 107.221 87.7246 107.221H87.7204C87.7204 107.221 87.7204 107.221 87.7161 107.221C87.7161 107.221 87.7161 107.221 87.7118 107.221H87.7076C87.7076 107.221 87.7076 107.221 87.7033 107.221H87.699H87.6948H87.6905H87.6862C87.6862 107.221 87.6862 107.221 87.682 107.221C87.682 107.221 87.682 107.221 87.6777 107.221H87.6692C87.6692 107.221 87.6692 107.221 87.6649 107.221C87.6649 107.221 87.6649 107.221 87.6606 107.221H87.6521H87.6478C87.6478 107.221 87.6478 107.221 87.6435 107.221H87.635C87.635 107.221 87.635 107.221 87.6307 107.221H87.6222C87.6222 107.221 87.6222 107.221 87.6179 107.221H87.6094C87.6094 107.221 87.6094 107.221 87.6051 107.221H87.5966C87.5966 107.221 87.5966 107.221 87.5923 107.221H87.5795C87.5795 107.221 87.5795 107.221 87.5753 107.221H87.5582C87.5582 107.221 87.5582 107.221 87.5539 107.221H87.5411C87.5411 107.221 87.5411 107.221 87.5368 107.221H87.5155C87.5155 107.221 87.5155 107.221 87.5112 107.221H87.4685C87.4685 107.221 87.4685 107.221 87.4643 107.221H87.3746C87.3746 107.221 87.3618 107.221 87.3533 107.221H87.3277C87.3277 107.221 87.3149 107.221 87.3063 107.221C87.3063 107.221 87.2935 107.221 87.285 107.221C87.285 107.221 87.2722 107.221 87.2637 107.221C87.2637 107.221 87.2509 107.221 87.2423 107.221C87.2423 107.221 87.2295 107.221 87.2252 107.221C87.2252 107.221 87.2124 107.221 87.2039 107.221C87.2039 107.221 87.1911 107.221 87.1826 107.221C87.1826 107.221 87.1698 107.221 87.1655 107.221C87.1655 107.221 87.1527 107.221 87.1441 107.221C87.1441 107.221 87.1313 107.221 87.1271 107.221C87.1271 107.221 87.1143 107.221 87.1057 107.221C87.1057 107.221 87.0929 107.221 87.0887 107.221C87.0887 107.221 87.0759 107.221 87.0716 107.221C87.0673 107.221 87.0588 107.221 87.0545 107.221C87.0502 107.221 87.0417 107.221 87.0374 107.221C87.0332 107.221 87.0246 107.221 87.0204 107.221C87.0161 107.221 87.0076 107.221 87.0033 107.221C87.0033 107.221 87.0033 107.221 86.999 107.221C86.9948 107.221 86.9862 107.221 86.982 107.221C86.982 107.221 86.9691 107.221 86.9649 107.221H86.9606C86.9606 107.221 86.9478 107.221 86.9435 107.221C86.9435 107.221 86.9435 107.221 86.9393 107.221C86.935 107.221 86.9265 107.221 86.9222 107.221C86.9179 107.221 86.9094 107.221 86.9051 107.221C86.9051 107.221 86.9051 107.221 86.9009 107.221C86.8966 107.221 86.888 107.221 86.8838 107.221C86.8838 107.221 86.8838 107.221 86.8795 107.221C86.8752 107.221 86.8667 107.221 86.8624 107.221C86.8624 107.221 86.8624 107.221 86.8582 107.221C86.8539 107.221 86.8454 107.221 86.8411 107.221C86.8411 107.221 86.8411 107.221 86.8368 107.221C86.8326 107.221 86.8283 107.221 86.8198 107.221H86.8155C86.8112 107.221 86.8069 107.221 86.7984 107.221C86.7984 107.221 86.7941 107.221 86.7899 107.221C86.7856 107.221 86.7813 107.221 86.7771 107.221C86.7771 107.221 86.7728 107.221 86.7685 107.221C86.7643 107.221 86.76 107.221 86.7557 107.221C86.7557 107.221 86.7515 107.221 86.7472 107.221C86.7429 107.221 86.7387 107.221 86.7344 107.221C86.7344 107.221 86.7301 107.221 86.7259 107.221C86.7216 107.221 86.7173 107.221 86.713 107.221C86.713 107.221 86.7088 107.221 86.7045 107.221C86.7002 107.221 86.696 107.221 86.6917 107.221C86.6917 107.221 86.6874 107.221 86.6832 107.221C86.6789 107.221 86.6746 107.221 86.6704 107.221C86.6704 107.221 86.6661 107.221 86.6618 107.221C86.6576 107.221 86.6533 107.221 86.649 107.221C86.649 107.221 86.6447 107.221 86.6405 107.221C86.6405 107.221 86.6319 107.221 86.6277 107.221C86.6277 107.221 86.6234 107.221 86.6191 107.221C86.6149 107.221 86.6106 107.221 86.6063 107.221C86.6063 107.221 86.5978 107.221 86.5935 107.221C86.5893 107.221 86.585 107.221 86.5807 107.221C86.5807 107.221 86.5765 107.221 86.5722 107.221C86.5722 107.221 86.5636 107.221 86.5594 107.221C86.5594 107.221 86.5508 107.221 86.5466 107.221H86.538C86.538 107.221 86.5295 107.221 86.5252 107.221C86.5252 107.221 86.5167 107.221 86.5124 107.221C86.5124 107.221 86.5039 107.221 86.4996 107.221C86.4996 107.221 86.4954 107.221 86.4911 107.221C86.4868 107.221 86.4825 107.221 86.4783 107.221C86.4783 107.221 86.474 107.221 86.4697 107.221C86.4697 107.221 86.4612 107.221 86.4569 107.221H86.4484C86.4441 107.221 86.4399 107.221 86.4356 107.221C86.4356 107.221 86.4356 107.221 86.4313 107.221C86.4271 107.221 86.4228 107.221 86.4143 107.221C86.4057 107.221 86.4015 107.221 86.3929 107.221C86.3887 107.221 86.3801 107.221 86.3758 107.221C86.363 107.221 86.346 107.221 86.3332 107.221C85.7911 107.209 85.2575 107.191 84.724 107.166C84.7112 107.166 84.7026 107.166 84.6898 107.166C84.3526 107.166 84.0667 107.43 84.0496 107.776C84.0325 108.13 84.3057 108.429 84.6557 108.446C85.5819 108.493 86.5252 108.515 87.4643 108.515C93.7644 108.515 99.6675 107.486 104.085 105.621C104.41 105.484 104.563 105.108 104.427 104.78C104.324 104.537 104.085 104.387 103.838 104.387L103.317 104.485ZM86.9478 87.732C80.7971 87.732 74.9921 88.718 70.6085 90.5107C65.8578 92.4485 63.2456 95.1717 63.2456 98.1724C63.2456 102.684 69.0847 106.432 78.4836 107.955C78.5178 107.96 78.5519 107.964 78.5861 107.964C78.8934 107.964 79.1666 107.742 79.2178 107.426C79.2733 107.076 79.0385 106.748 78.6885 106.692C76.9385 106.41 75.2952 106.039 73.7927 105.591C73.7927 105.591 73.7671 105.582 73.75 105.578C73.75 105.578 73.7372 105.578 73.7287 105.574C73.7287 105.574 73.7159 105.574 73.7074 105.569C73.7074 105.569 73.6946 105.565 73.686 105.565C73.686 105.565 73.6732 105.565 73.6647 105.561C73.6647 105.561 73.6519 105.557 73.6433 105.557C73.6433 105.557 73.6305 105.557 73.622 105.552C73.622 105.552 73.6177 105.552 73.6135 105.552C73.6135 105.552 73.6092 105.552 73.6049 105.552H73.5964C73.5964 105.552 73.5836 105.548 73.575 105.548C73.575 105.548 73.5622 105.544 73.5537 105.544C73.5537 105.544 73.5409 105.54 73.5324 105.535C73.5324 105.535 73.5195 105.535 73.511 105.531C73.511 105.531 73.4982 105.527 73.4897 105.527H73.4811H73.4726C73.4726 105.527 73.4683 105.527 73.4641 105.527C73.4641 105.527 73.4598 105.527 73.4555 105.527C73.4555 105.527 73.4512 105.527 73.447 105.527C73.447 105.527 73.4427 105.527 73.4384 105.527C73.4384 105.527 73.4342 105.527 73.4299 105.527H73.4214C73.4214 105.527 73.4171 105.527 73.4128 105.527C73.4128 105.527 73.4086 105.527 73.4043 105.527C73.4043 105.527 73.4 105.527 73.3958 105.527C73.3872 105.527 73.383 105.527 73.3787 105.523C73.3702 105.523 73.3659 105.523 73.3616 105.518C73.3573 105.518 73.3488 105.518 73.3445 105.514H73.336C73.336 105.514 73.3317 105.514 73.3275 105.514C73.3275 105.514 73.3232 105.514 73.3189 105.514C73.3189 105.514 73.3147 105.514 73.3104 105.514C73.3104 105.514 73.3061 105.514 73.3019 105.514C73.3019 105.514 73.2976 105.514 73.2933 105.514C73.2933 105.514 73.2891 105.514 73.2848 105.514C73.2848 105.514 73.2805 105.514 73.2762 105.514C73.2762 105.514 73.272 105.514 73.2677 105.514C73.2677 105.514 73.2634 105.514 73.2592 105.514C73.2592 105.514 73.2549 105.514 73.2506 105.514C73.2506 105.514 73.2464 105.514 73.2421 105.514C73.2421 105.514 73.2378 105.514 73.2336 105.514C73.2336 105.514 73.2293 105.514 73.225 105.514C73.225 105.514 73.2208 105.514 73.2165 105.514C73.2165 105.514 73.2122 105.514 73.208 105.514C73.208 105.514 73.2037 105.514 73.1994 105.514C73.1994 105.514 73.1952 105.514 73.1909 105.514C73.1909 105.514 73.1866 105.514 73.1823 105.514C73.1823 105.514 73.1781 105.514 73.1738 105.514C73.1738 105.514 73.1695 105.514 73.1653 105.514C73.1653 105.514 73.161 105.514 73.1567 105.514C73.1567 105.514 73.1525 105.514 73.1482 105.514C73.1482 105.514 73.1439 105.514 73.1397 105.514C73.1397 105.514 73.1354 105.514 73.1311 105.514C73.1311 105.514 73.1269 105.514 73.1226 105.514C73.1226 105.514 73.1183 105.514 73.114 105.514C73.114 105.514 73.1098 105.514 73.1055 105.514C73.1055 105.514 73.1012 105.514 73.097 105.514C73.097 105.514 73.0927 105.514 73.0884 105.514C73.0884 105.514 73.0842 105.514 73.0799 105.514C73.0799 105.514 73.0756 105.514 73.0714 105.514C73.0714 105.514 73.0671 105.514 73.0628 105.514C73.0628 105.514 73.0628 105.514 73.0586 105.514C73.0586 105.514 73.0543 105.514 73.05 105.514C73.05 105.514 73.05 105.514 73.0458 105.514C73.0458 105.514 73.0458 105.514 73.0415 105.514C73.0415 105.514 73.0372 105.514 73.033 105.514C73.033 105.514 73.033 105.514 73.0287 105.514C73.0287 105.514 73.0244 105.514 73.0201 105.514C73.0201 105.514 73.0201 105.514 73.0159 105.514C73.0159 105.514 73.0116 105.514 73.0073 105.514C73.0073 105.514 73.0073 105.514 73.0031 105.514C73.0031 105.514 72.9988 105.514 72.9945 105.514C72.9945 105.514 72.9903 105.514 72.986 105.514C72.986 105.514 72.9817 105.514 72.9775 105.514H72.9732C72.9732 105.514 72.9689 105.514 72.9647 105.514C72.9647 105.514 72.9604 105.514 72.9561 105.514C72.9561 105.514 72.9561 105.514 72.9519 105.514C72.9519 105.514 72.9519 105.514 72.9476 105.514C72.9476 105.514 72.9476 105.514 72.9433 105.514C72.9433 105.514 72.9433 105.514 72.9391 105.514C72.9391 105.514 72.9348 105.514 72.9305 105.514C72.9305 105.514 72.9262 105.514 72.922 105.514C72.922 105.514 72.9177 105.514 72.9134 105.514C72.9134 105.514 72.9134 105.514 72.9092 105.514C72.9092 105.514 72.9049 105.514 72.9006 105.514C72.9006 105.514 72.9006 105.514 72.8964 105.514C72.8964 105.514 72.8921 105.514 72.8878 105.514C72.8878 105.514 72.8878 105.514 72.8836 105.514C72.8836 105.514 72.8793 105.514 72.875 105.514C72.875 105.514 72.8708 105.514 72.8665 105.514C72.8665 105.514 72.8622 105.514 72.858 105.514C72.858 105.514 72.8537 105.514 72.8494 105.514C72.8494 105.514 72.8451 105.514 72.8409 105.514C72.8409 105.514 72.8366 105.514 72.8323 105.514C72.8323 105.514 72.8281 105.514 72.8238 105.514C72.8238 105.514 72.8238 105.514 72.8195 105.514C72.8195 105.514 72.8195 105.514 72.8153 105.514C72.8153 105.514 72.811 105.514 72.8067 105.514C72.8067 105.514 72.8067 105.514 72.8025 105.514C72.8025 105.514 72.7982 105.514 72.7939 105.514H72.7897C72.7897 105.514 72.7854 105.514 72.7811 105.514C72.7811 105.514 72.7811 105.514 72.7769 105.514H72.7683C72.7683 105.514 72.7683 105.514 72.764 105.514C72.764 105.514 72.7598 105.514 72.7555 105.514C72.7555 105.514 72.7555 105.514 72.7512 105.514C72.7512 105.514 72.747 105.514 72.7427 105.514C72.7427 105.514 72.7427 105.514 72.7384 105.514C72.7384 105.514 72.7384 105.514 72.7342 105.514C72.7342 105.514 72.7342 105.514 72.7299 105.514C72.7299 105.514 72.7299 105.514 72.7256 105.514C72.7256 105.514 72.7256 105.514 72.7214 105.514C72.7214 105.514 72.7214 105.514 72.7171 105.514C72.7171 105.514 72.7128 105.514 72.7086 105.514C72.7086 105.514 72.7043 105.514 72.7 105.514C72.7 105.514 72.7 105.514 72.6958 105.514H72.6915C72.6915 105.514 72.6915 105.514 72.6872 105.514C72.6872 105.514 72.6872 105.514 72.6829 105.514C72.6829 105.514 72.6829 105.514 72.6787 105.514C72.6787 105.514 72.6744 105.514 72.6701 105.514C72.6701 105.514 72.6701 105.514 72.6659 105.514C72.6659 105.514 72.6616 105.514 72.6573 105.514C72.6573 105.514 72.6573 105.514 72.6531 105.514C72.6531 105.514 72.6488 105.514 72.6445 105.514C72.6445 105.514 72.6445 105.514 72.6403 105.514C72.636 105.514 72.6403 105.514 72.636 105.514C72.636 105.514 72.636 105.514 72.6317 105.514C72.6317 105.514 72.6317 105.514 72.6275 105.514H72.6232C72.6232 105.514 72.6232 105.514 72.6189 105.514C72.6189 105.514 72.6147 105.514 72.6104 105.514C72.6104 105.514 72.6104 105.514 72.6061 105.514C72.6061 105.514 72.6061 105.514 72.6018 105.514C72.6018 105.514 72.6018 105.514 72.5976 105.514C72.5976 105.514 72.5976 105.514 72.5933 105.514C72.5933 105.514 72.5933 105.514 72.589 105.514C72.589 105.514 72.589 105.514 72.5848 105.514C72.5848 105.514 72.5848 105.514 72.5805 105.514C72.5805 105.514 72.5762 105.514 72.572 105.514C72.572 105.514 72.572 105.514 72.5677 105.514C72.5677 105.514 72.5677 105.514 72.5634 105.514C72.5634 105.514 72.5634 105.514 72.5592 105.514H72.5549C72.5506 105.514 72.5421 105.514 72.5378 105.51C72.5378 105.51 72.5378 105.51 72.5336 105.51C72.5336 105.51 72.5336 105.51 72.5293 105.51C72.5293 105.51 72.5293 105.51 72.525 105.51C72.525 105.51 72.5207 105.51 72.5165 105.51C72.5165 105.51 72.5165 105.51 72.5122 105.51C72.5122 105.51 72.5079 105.51 72.5037 105.51C72.5037 105.51 72.5037 105.51 72.4994 105.51C72.4994 105.51 72.4951 105.51 72.4909 105.51C72.4909 105.51 72.4909 105.51 72.4866 105.51C72.4866 105.51 72.4823 105.51 72.4781 105.51C72.4781 105.51 72.4781 105.51 72.4738 105.51C72.4738 105.51 72.4695 105.51 72.4653 105.51C72.4653 105.51 72.4653 105.51 72.461 105.51C72.461 105.51 72.4567 105.51 72.4525 105.51C72.4525 105.51 72.4525 105.51 72.4482 105.51C72.4482 105.51 72.4439 105.51 72.4397 105.51C72.4397 105.51 72.4397 105.51 72.4354 105.51C72.4354 105.51 72.4311 105.51 72.4268 105.51C72.4268 105.51 72.4268 105.51 72.4226 105.51C72.4226 105.51 72.4226 105.51 72.4183 105.51C72.4183 105.51 72.4183 105.51 72.414 105.51C72.414 105.51 72.414 105.51 72.4098 105.51C72.4098 105.51 72.4055 105.51 72.4012 105.51C72.4012 105.51 72.4012 105.51 72.397 105.51C72.397 105.51 72.3927 105.51 72.3884 105.51C72.3884 105.51 72.3884 105.51 72.3842 105.51C72.3842 105.51 72.3799 105.51 72.3756 105.51C72.3756 105.51 72.3756 105.51 72.3714 105.51C72.3714 105.51 72.3671 105.51 72.3628 105.51C72.3628 105.51 72.3628 105.51 72.3586 105.51H72.3543C72.3543 105.51 72.3543 105.51 72.35 105.51C72.35 105.51 72.35 105.51 72.3457 105.51C72.3457 105.51 72.3457 105.51 72.3415 105.51H72.3372C72.3372 105.51 72.3329 105.51 72.3287 105.51C72.3287 105.51 72.3287 105.51 72.3244 105.51C72.3244 105.51 72.3201 105.51 72.3159 105.51C72.3159 105.51 72.3159 105.51 72.3116 105.51C72.3116 105.51 72.3073 105.51 72.3031 105.51C72.3031 105.51 72.3031 105.51 72.2988 105.51C72.2988 105.51 72.2988 105.51 72.2945 105.51C72.2945 105.51 72.2945 105.51 72.2903 105.51C72.2903 105.51 72.2903 105.51 72.2817 105.51C72.2817 105.51 72.2817 105.51 72.2775 105.51C72.2775 105.51 72.2732 105.51 72.2689 105.51C72.2689 105.51 72.2689 105.51 72.2647 105.51C72.2647 105.51 72.2604 105.51 72.2561 105.51C72.2561 105.51 72.2561 105.51 72.2518 105.51C72.2518 105.51 72.2476 105.51 72.2433 105.51C72.2433 105.51 72.2433 105.51 72.239 105.51C72.239 105.51 72.2348 105.51 72.2305 105.51C72.2305 105.51 72.2305 105.51 72.2262 105.51C72.2262 105.51 72.222 105.51 72.2177 105.51C72.2134 105.51 72.2092 105.51 72.2006 105.505C72.1964 105.505 72.1878 105.505 72.1836 105.501H72.175C72.175 105.501 72.175 105.501 72.1707 105.501H72.1622C72.1622 105.501 72.1622 105.501 72.1579 105.501C72.1579 105.501 72.1537 105.501 72.1494 105.501C72.1494 105.501 72.1494 105.501 72.1451 105.501C72.1451 105.501 72.1409 105.501 72.1366 105.501C72.1366 105.501 72.1366 105.501 72.1323 105.501C72.1323 105.501 72.1281 105.501 72.1238 105.501C72.1238 105.501 72.1238 105.501 72.1195 105.501C72.1195 105.501 72.1153 105.501 72.111 105.501C72.111 105.501 72.111 105.501 72.1067 105.501H72.0982C72.0939 105.501 72.0896 105.501 72.0811 105.497C72.0768 105.497 72.0726 105.497 72.064 105.493C72.064 105.493 72.0598 105.493 72.0555 105.493C72.0555 105.493 72.0555 105.493 72.0512 105.493H72.0427C72.0427 105.493 72.0427 105.493 72.0384 105.493C72.0384 105.493 72.0342 105.493 72.0299 105.493C72.0299 105.493 72.0299 105.493 72.0256 105.493H72.0171C72.0171 105.493 72.0171 105.493 72.0128 105.493C72.0128 105.493 72.0085 105.493 72.0043 105.493C72.0043 105.493 72.0043 105.493 72 105.493C72 105.493 71.9957 105.493 71.9915 105.493C71.9915 105.493 71.9915 105.493 71.9872 105.493C71.9872 105.493 71.9829 105.493 71.9787 105.493C71.9744 105.493 71.9659 105.493 71.9616 105.484C71.9616 105.484 71.9488 105.48 71.9445 105.476C71.9403 105.476 71.9317 105.471 71.9274 105.467H71.9189C71.9189 105.467 71.9189 105.467 71.9146 105.467C71.9146 105.467 71.9104 105.467 71.9061 105.467C71.9061 105.467 71.9061 105.467 71.9018 105.467H71.8933C71.8933 105.467 71.8933 105.467 71.889 105.467C71.889 105.467 71.8848 105.467 71.8805 105.467C71.8805 105.467 71.8805 105.467 71.8762 105.467H71.8677C71.8677 105.467 71.8677 105.467 71.8634 105.467H71.8549C71.8506 105.467 71.8421 105.463 71.8378 105.458C71.8335 105.458 71.825 105.454 71.8207 105.45H71.8122C71.8122 105.45 71.8122 105.45 71.8079 105.45C71.8079 105.45 71.7994 105.45 71.7994 105.446C71.7994 105.446 71.7994 105.446 71.7951 105.446C71.7951 105.446 71.7866 105.446 71.7823 105.441C71.7823 105.441 71.7823 105.441 71.7781 105.441C71.7781 105.441 71.7738 105.441 71.7695 105.441C71.7695 105.441 71.7695 105.441 71.7653 105.441C71.7653 105.441 71.761 105.441 71.7567 105.441C71.7567 105.441 71.7567 105.441 71.7524 105.441C71.7524 105.441 71.7482 105.441 71.7439 105.441C71.7439 105.441 71.7439 105.441 71.7396 105.441H71.7311C71.7311 105.441 71.7183 105.437 71.714 105.433C71.7098 105.433 71.7055 105.433 71.697 105.429C71.697 105.429 71.6927 105.429 71.6884 105.429C71.6884 105.429 71.6884 105.429 71.6842 105.429C71.6799 105.429 71.6756 105.424 71.6671 105.42C71.6671 105.42 71.6628 105.42 71.6585 105.42C71.6585 105.42 71.6585 105.42 71.6543 105.42C71.6543 105.42 71.65 105.42 71.6457 105.42C71.6457 105.42 71.6457 105.42 71.6415 105.42C71.6415 105.42 71.6372 105.42 71.6329 105.42C71.6329 105.42 71.6329 105.42 71.6287 105.42C71.6287 105.42 71.6244 105.42 71.6201 105.42C71.6201 105.42 71.6201 105.42 71.6159 105.42C71.6159 105.42 71.6073 105.42 71.6073 105.416C71.6031 105.416 71.5988 105.412 71.5902 105.407C71.586 105.407 71.5774 105.403 71.5732 105.399C71.5689 105.399 71.5604 105.394 71.5561 105.39C71.5561 105.39 71.5476 105.39 71.5476 105.386C71.5476 105.386 71.5476 105.386 71.5433 105.386C71.5433 105.386 71.539 105.386 71.5348 105.386C71.5348 105.386 71.5348 105.386 71.5305 105.386H71.522C71.522 105.386 71.522 105.386 71.5177 105.386H71.5091C71.5091 105.386 71.5092 105.386 71.5049 105.386C71.5049 105.386 71.4963 105.386 71.4921 105.382C71.4921 105.382 71.4921 105.382 71.4878 105.382C71.4878 105.382 71.4793 105.382 71.4793 105.377C71.475 105.377 71.4707 105.373 71.4622 105.369C71.4579 105.369 71.4494 105.365 71.4451 105.36C71.4409 105.36 71.4323 105.356 71.428 105.352C71.428 105.352 71.4152 105.348 71.411 105.343C71.411 105.343 71.4024 105.343 71.4024 105.339C71.4024 105.339 71.4024 105.339 71.3982 105.339C71.3982 105.339 71.3939 105.339 71.3896 105.339C71.3896 105.339 71.3896 105.339 71.3854 105.339C71.3854 105.339 71.3811 105.339 71.3768 105.339C71.3768 105.339 71.364 105.335 71.3598 105.33C71.3555 105.33 71.3512 105.326 71.3427 105.322C71.3384 105.322 71.3299 105.318 71.3256 105.313C71.3256 105.313 71.3128 105.309 71.3085 105.305C71.3085 105.305 71.2957 105.301 71.2915 105.296C71.2915 105.296 71.2787 105.292 71.2744 105.288C71.2744 105.288 71.2317 105.271 71.2104 105.262C71.2104 105.262 71.2104 105.262 71.2061 105.262C71.2061 105.262 71.1976 105.262 71.1933 105.258C71.1933 105.258 71.172 105.249 71.1591 105.241C71.1591 105.241 71.1463 105.237 71.1421 105.232C71.1421 105.232 71.1293 105.228 71.125 105.224C71.125 105.224 71.1165 105.224 71.1165 105.219C71.1165 105.219 71.1165 105.219 71.1122 105.219C71.1079 105.219 71.1037 105.215 71.0951 105.211C71.0951 105.211 71.0866 105.211 71.0866 105.207C71.0866 105.207 71.0866 105.207 71.0823 105.207C71.0823 105.207 71.0738 105.207 71.0738 105.202C71.0738 105.202 71.0738 105.202 71.0695 105.202C71.0695 105.202 71.061 105.202 71.061 105.198C71.0567 105.198 71.0524 105.194 71.0439 105.19C71.0439 105.19 71.0354 105.185 71.0268 105.181C71.0226 105.181 71.0183 105.177 71.0098 105.173C71.0098 105.173 71.0012 105.168 70.9927 105.164C70.9799 105.16 70.9713 105.155 70.9585 105.151C70.9585 105.151 70.95 105.151 70.95 105.147C70.9457 105.147 70.9372 105.143 70.9329 105.138C70.9329 105.138 70.9201 105.134 70.9158 105.13C70.9158 105.13 70.8945 105.121 70.8817 105.113C70.8817 105.113 70.8732 105.108 70.8646 105.104C70.8646 105.104 70.8518 105.1 70.8476 105.096C70.8476 105.096 70.8262 105.087 70.8134 105.079C70.8134 105.079 70.7835 105.066 70.7707 105.057C70.7366 105.04 70.7067 105.027 70.6725 105.01C70.6725 105.01 70.664 105.01 70.664 105.006C70.664 105.006 70.6427 104.998 70.6299 104.989C70.6299 104.989 70.6213 104.985 70.6128 104.98C70.6128 104.98 70.6043 104.976 70.5957 104.972C70.5957 104.972 70.5872 104.968 70.5786 104.963C70.5786 104.963 70.5701 104.959 70.5616 104.955C70.5616 104.955 70.5488 104.951 70.5445 104.946C70.5445 104.946 70.536 104.942 70.5274 104.938C70.5274 104.938 70.5189 104.938 70.5189 104.933C70.5189 104.933 70.5189 104.933 70.5146 104.933C70.5146 104.933 70.4975 104.925 70.489 104.921C70.489 104.921 70.4805 104.916 70.4719 104.912C70.4719 104.912 70.4634 104.908 70.4549 104.904C70.4549 104.904 70.4463 104.899 70.4378 104.895C70.4378 104.895 70.4293 104.891 70.4207 104.887C70.4164 104.887 70.4122 104.882 70.4036 104.878C70.4036 104.878 70.3951 104.874 70.3866 104.869C70.3866 104.869 70.3823 104.869 70.378 104.865C70.378 104.865 70.378 104.865 70.3738 104.865C70.3738 104.865 70.3695 104.865 70.3652 104.861C70.3652 104.861 70.3652 104.861 70.361 104.861C70.361 104.861 70.3567 104.861 70.3524 104.861C70.3524 104.861 70.3524 104.861 70.3482 104.861C70.3482 104.861 70.3439 104.861 70.3396 104.861C70.3396 104.861 70.3396 104.861 70.3353 104.861C70.3353 104.861 70.3311 104.861 70.3268 104.857C70.3225 104.857 70.3183 104.852 70.314 104.848C70.314 104.848 70.3055 104.844 70.3012 104.84C70.2969 104.84 70.2927 104.835 70.2841 104.831C70.2841 104.831 70.2756 104.827 70.2671 104.822C70.2585 104.818 70.25 104.814 70.2414 104.81C70.2414 104.81 70.2414 104.81 70.2372 104.81C70.2372 104.81 70.2286 104.81 70.2286 104.805C70.2244 104.805 70.2201 104.801 70.2116 104.797C70.2116 104.797 70.203 104.793 70.1945 104.788C70.1945 104.788 70.186 104.784 70.1774 104.78C70.1774 104.78 70.1689 104.776 70.1603 104.771C70.1603 104.771 70.1305 104.754 70.1134 104.746C70.1134 104.746 70.1049 104.746 70.1049 104.741C70.1049 104.741 70.1049 104.741 70.1006 104.741C70.1006 104.741 70.0963 104.741 70.0921 104.737C70.0921 104.737 70.0921 104.737 70.0878 104.737C70.0878 104.737 70.0792 104.737 70.0792 104.733C70.0792 104.733 70.0707 104.729 70.0664 104.724C70.0622 104.724 70.0579 104.72 70.0536 104.716C70.0536 104.716 70.0451 104.712 70.0408 104.707C70.0408 104.707 70.0366 104.707 70.0323 104.703C70.0323 104.703 70.0323 104.703 70.028 104.703C70.0238 104.703 70.0195 104.699 70.0152 104.694C70.0152 104.694 70.0067 104.694 70.0067 104.69C70.0067 104.69 70.0067 104.69 70.0024 104.69C70.0024 104.69 69.9981 104.69 69.9939 104.686C69.9939 104.686 69.9939 104.686 69.9896 104.686C69.9896 104.686 69.9853 104.686 69.9811 104.682C69.9811 104.682 69.9811 104.682 69.9768 104.682C69.9768 104.682 69.9683 104.682 69.9683 104.677C69.9683 104.677 69.9597 104.673 69.9555 104.669C69.9512 104.669 69.9469 104.665 69.9427 104.66C69.9427 104.66 69.9341 104.656 69.9299 104.652C69.9256 104.652 69.9213 104.648 69.9171 104.643C69.9171 104.643 69.9128 104.643 69.9085 104.639C69.9085 104.639 69.9085 104.639 69.9042 104.639C69.9042 104.639 69.9 104.639 69.8957 104.639C69.8957 104.639 69.8914 104.639 69.8872 104.639C69.8872 104.639 69.8829 104.639 69.8786 104.639C69.8786 104.639 69.8786 104.639 69.8744 104.639C69.8744 104.639 69.8701 104.639 69.8658 104.635C69.8658 104.635 69.8658 104.635 69.8616 104.635C69.8616 104.635 69.8573 104.635 69.853 104.63C69.853 104.63 69.853 104.63 69.8488 104.63C69.8488 104.63 69.8445 104.63 69.8402 104.626C69.836 104.626 69.8317 104.622 69.8274 104.618C69.8231 104.618 69.8189 104.613 69.8146 104.609C69.8146 104.609 69.8103 104.609 69.8061 104.605C69.8061 104.605 69.8018 104.605 69.7975 104.601C69.7975 104.601 69.7975 104.601 69.7933 104.601C69.7933 104.601 69.789 104.601 69.7847 104.601C69.7847 104.601 69.7847 104.601 69.7805 104.601C69.7805 104.601 69.7762 104.601 69.7719 104.601C69.7719 104.601 69.7719 104.601 69.7677 104.601C69.7677 104.601 69.7634 104.601 69.7591 104.596C69.7591 104.596 69.7549 104.596 69.7506 104.592C69.7463 104.592 69.7421 104.588 69.7378 104.583C69.7335 104.583 69.7292 104.579 69.725 104.575C69.7207 104.575 69.7164 104.571 69.7122 104.566C69.7122 104.566 69.7079 104.566 69.7036 104.566C69.7036 104.566 69.6994 104.566 69.6951 104.562C69.6951 104.562 69.6951 104.562 69.6908 104.562C69.6908 104.562 69.6866 104.562 69.6823 104.558C69.6823 104.558 69.6823 104.558 69.678 104.558C69.678 104.558 69.6738 104.558 69.6695 104.554C69.6695 104.554 69.6695 104.554 69.6652 104.554C69.6652 104.554 69.661 104.554 69.6567 104.549C69.6567 104.549 69.6524 104.549 69.6481 104.549C69.6481 104.549 69.6439 104.549 69.6396 104.545C69.6353 104.545 69.6311 104.541 69.6268 104.537C69.6225 104.537 69.6183 104.532 69.614 104.528C69.6097 104.528 69.6055 104.524 69.6012 104.519C69.5969 104.519 69.5927 104.515 69.5884 104.511C69.5884 104.511 69.5799 104.507 69.5756 104.502C69.5756 104.502 69.5713 104.502 69.567 104.498C69.567 104.498 69.567 104.498 69.5628 104.498C69.5628 104.498 69.5585 104.498 69.5542 104.494C69.5542 104.494 69.5542 104.494 69.55 104.494H69.5414V104.49C69.5414 104.49 69.5372 104.49 69.5329 104.49C69.5286 104.49 69.5244 104.485 69.5201 104.481C69.5201 104.481 69.5158 104.481 69.5116 104.477C69.5073 104.477 69.503 104.472 69.4987 104.468C69.4987 104.468 69.4945 104.468 69.4902 104.464C69.4902 104.464 69.4859 104.464 69.4817 104.46C69.4817 104.46 69.4817 104.46 69.4774 104.46C69.4774 104.46 69.4731 104.46 69.4689 104.46C69.4689 104.46 69.4646 104.46 69.4603 104.46C69.4603 104.46 69.4561 104.46 69.4518 104.455C69.4518 104.455 69.4475 104.455 69.4433 104.451C69.4433 104.451 69.4433 104.451 69.439 104.451C69.4347 104.451 69.4305 104.447 69.4262 104.443C69.4262 104.443 69.4219 104.443 69.4177 104.443C69.4177 104.443 69.4134 104.443 69.4091 104.438C69.4091 104.438 69.4091 104.438 69.4049 104.438C69.4049 104.438 69.4006 104.438 69.3963 104.434C69.3963 104.434 69.3963 104.434 69.3878 104.434C69.3878 104.434 69.3878 104.434 69.3835 104.434C69.3835 104.434 69.3835 104.434 69.3792 104.434C69.3792 104.434 69.3792 104.434 69.375 104.434C69.375 104.434 69.375 104.434 69.3707 104.434C69.3707 104.434 69.3707 104.434 69.3664 104.434C69.3664 104.434 69.3664 104.434 69.3622 104.434C69.3622 104.434 69.3622 104.434 69.3579 104.434C69.3579 104.434 69.3579 104.434 69.3536 104.434C69.3536 104.434 69.3536 104.434 69.3494 104.434C69.3494 104.434 69.3494 104.434 69.3451 104.434C69.3451 104.434 69.3451 104.434 69.3408 104.434C69.3408 104.434 69.3408 104.434 69.3366 104.434C69.3366 104.434 69.3366 104.434 69.3323 104.434C69.3323 104.434 69.3323 104.434 69.328 104.434C69.328 104.434 69.3195 104.43 69.3152 104.426C69.3152 104.426 69.3109 104.426 69.3067 104.421C69.3067 104.421 69.3067 104.421 69.3024 104.421C69.3024 104.421 69.3024 104.421 69.2981 104.421C69.2981 104.421 69.2981 104.421 69.2939 104.421C69.2939 104.421 69.2939 104.421 69.2896 104.421C69.2896 104.421 69.2896 104.421 69.2853 104.421C69.2853 104.421 69.2853 104.421 69.2811 104.421C69.2811 104.421 69.2811 104.421 69.2768 104.421C69.2768 104.421 69.2768 104.421 69.2725 104.421C69.2725 104.421 69.2725 104.421 69.2683 104.421C69.2683 104.421 69.2683 104.421 69.264 104.421C69.264 104.421 69.264 104.421 69.2597 104.421C69.2597 104.421 69.2597 104.421 69.2555 104.421C69.2555 104.421 69.2555 104.421 69.2512 104.421C69.2512 104.421 69.2512 104.421 69.2469 104.421C69.2469 104.421 69.2469 104.421 69.2427 104.421C69.2427 104.421 69.2427 104.421 69.2384 104.421C69.2384 104.421 69.2384 104.421 69.2384 104.417C69.2384 104.417 69.2384 104.417 69.2341 104.417C69.2341 104.417 69.2341 104.417 69.2298 104.417C69.2298 104.417 69.2298 104.417 69.2256 104.417C69.2256 104.417 69.2256 104.417 69.2213 104.417C69.2213 104.417 69.2213 104.417 69.2213 104.413C69.2213 104.413 69.2213 104.413 69.217 104.413C69.217 104.413 69.217 104.413 69.2128 104.413C69.2128 104.413 69.2128 104.413 69.2085 104.413C69.2085 104.413 69.2085 104.413 69.2042 104.413C69.2042 104.413 69.2042 104.413 69.2 104.413C69.2 104.413 69.2 104.413 69.1957 104.413C69.1957 104.413 69.1957 104.413 69.1914 104.413C69.1914 104.413 69.1914 104.413 69.1872 104.413C69.1872 104.413 69.1872 104.413 69.1829 104.413C69.1829 104.413 69.1829 104.413 69.1786 104.413C69.1786 104.413 69.1786 104.413 69.1744 104.413C69.1744 104.413 69.1744 104.413 69.1701 104.413C69.1701 104.413 69.1701 104.413 69.1658 104.413C69.1658 104.413 69.1658 104.413 69.1616 104.413C69.1616 104.413 69.1616 104.413 69.1573 104.413C69.1573 104.413 69.1573 104.413 69.153 104.413C69.153 104.413 69.153 104.413 69.1487 104.413C69.1487 104.413 69.1487 104.413 69.1445 104.413C69.1445 104.413 69.1445 104.413 69.1402 104.413C69.1402 104.413 69.1402 104.413 69.1359 104.413C69.1359 104.413 69.1359 104.413 69.1317 104.413C69.1317 104.413 69.1317 104.413 69.1274 104.413C69.1274 104.413 69.1274 104.413 69.1231 104.413C69.1231 104.413 69.1231 104.413 69.1189 104.413H69.1146V104.408C69.1146 104.408 69.1146 104.408 69.1103 104.408C69.1103 104.408 69.1103 104.408 69.1061 104.408C69.1061 104.408 69.1061 104.408 69.1018 104.408C69.1018 104.408 69.1018 104.408 69.0975 104.408C69.0975 104.408 69.0975 104.408 69.0933 104.408C69.0933 104.408 69.0933 104.408 69.089 104.408C69.089 104.408 69.089 104.408 69.0847 104.408C69.0847 104.408 69.0847 104.408 69.0805 104.408C69.0805 104.408 69.0805 104.408 69.0762 104.408C69.0762 104.408 69.0762 104.408 69.0719 104.408C69.0719 104.408 69.0719 104.408 69.0676 104.408C69.0676 104.408 69.0676 104.408 69.0634 104.408C69.0634 104.408 69.0634 104.408 69.0591 104.408C69.0591 104.408 69.0591 104.408 69.0548 104.408C69.0548 104.408 69.0548 104.408 69.0506 104.408C69.0506 104.408 69.0506 104.408 69.0463 104.408C69.0463 104.408 69.0463 104.408 69.042 104.408C69.042 104.408 69.042 104.408 69.0378 104.408C69.0378 104.408 69.0378 104.408 69.0335 104.408C69.0335 104.408 69.0335 104.408 69.0292 104.408C69.0292 104.408 69.0292 104.408 69.025 104.408C69.025 104.408 69.025 104.408 69.0207 104.408C69.0207 104.408 69.0207 104.408 69.0164 104.408C69.0164 104.408 69.0164 104.408 69.0122 104.408C69.0122 104.408 69.0122 104.408 69.0079 104.408C69.0079 104.408 69.0079 104.408 69.0036 104.408C69.0036 104.408 69.0036 104.408 68.9994 104.408C68.9994 104.408 68.9994 104.408 68.9951 104.408C68.9951 104.408 68.9951 104.408 68.9908 104.408C68.9908 104.408 68.9908 104.408 68.9865 104.408C68.9865 104.408 68.9865 104.408 68.9823 104.408C68.9823 104.408 68.9823 104.408 68.978 104.408C68.978 104.408 68.978 104.408 68.9737 104.408C68.9737 104.408 68.9737 104.408 68.9695 104.408C68.9695 104.408 68.9695 104.408 68.9652 104.408C68.9652 104.408 68.9652 104.408 68.9609 104.408C68.9609 104.408 68.9609 104.408 68.9567 104.408C68.9567 104.408 68.9567 104.408 68.9524 104.408C68.9524 104.408 68.9524 104.408 68.9481 104.408C68.9481 104.408 68.9481 104.408 68.9439 104.408C68.9439 104.408 68.9439 104.408 68.9396 104.408C68.9396 104.408 68.9396 104.408 68.9353 104.408C68.9353 104.408 68.9353 104.408 68.9311 104.408C68.9311 104.408 68.9311 104.408 68.9268 104.408C68.9268 104.408 68.9268 104.408 68.9225 104.408C68.9225 104.408 68.9225 104.408 68.9183 104.408C68.9183 104.408 68.9183 104.408 68.914 104.408C68.914 104.408 68.914 104.408 68.9097 104.408C68.9097 104.408 68.9097 104.408 68.9054 104.408C68.9054 104.408 68.9054 104.408 68.9012 104.408C68.9012 104.408 68.9012 104.408 68.8969 104.404C68.8969 104.404 68.8969 104.404 68.8926 104.404C68.8926 104.404 68.8926 104.404 68.8884 104.404C68.8884 104.404 68.8884 104.404 68.8841 104.404C68.8841 104.404 68.8841 104.404 68.8798 104.404C68.8798 104.404 68.8798 104.404 68.8756 104.404C68.8756 104.404 68.8756 104.404 68.8713 104.404C68.8713 104.404 68.8713 104.404 68.867 104.404C68.867 104.404 68.867 104.404 68.8628 104.404C68.8628 104.404 68.8628 104.404 68.8585 104.404C68.8585 104.404 68.8585 104.404 68.8542 104.404C68.8542 104.404 68.8542 104.404 68.85 104.404C68.85 104.404 68.85 104.404 68.8457 104.404C68.8457 104.404 68.8457 104.404 68.8414 104.404C68.8414 104.404 68.8414 104.404 68.8372 104.404C68.8372 104.404 68.8372 104.404 68.8329 104.404C68.8329 104.404 68.8329 104.404 68.8286 104.404C68.8286 104.404 68.8286 104.404 68.8244 104.404C68.8244 104.404 68.8243 104.404 68.8201 104.404C68.8201 104.404 68.8201 104.404 68.8158 104.404C68.8158 104.404 68.8158 104.404 68.8115 104.404C68.8115 104.404 68.8115 104.404 68.8073 104.404C68.8073 104.404 68.8073 104.404 68.803 104.4C68.803 104.4 68.803 104.4 68.7987 104.4C68.7987 104.4 68.7987 104.4 68.7945 104.4C68.7945 104.4 68.7945 104.4 68.7902 104.4C68.7902 104.4 68.7902 104.4 68.7859 104.4C68.7859 104.4 68.7859 104.4 68.7817 104.4C68.7817 104.4 68.7817 104.4 68.7774 104.4C68.7774 104.4 68.7774 104.4 68.7731 104.4C68.7731 104.4 68.7731 104.4 68.7689 104.4C68.7689 104.4 68.7689 104.4 68.7646 104.4C68.7646 104.4 68.7646 104.4 68.7603 104.4C68.7603 104.4 68.7603 104.4 68.7561 104.4C68.7561 104.4 68.7561 104.4 68.7518 104.4C68.7518 104.4 68.7518 104.4 68.7475 104.4C68.7475 104.4 68.7475 104.4 68.7433 104.4C68.7433 104.4 68.7432 104.4 68.739 104.4C68.739 104.4 68.739 104.4 68.7347 104.4C68.7347 104.4 68.7347 104.4 68.7304 104.4C68.7304 104.4 68.7304 104.4 68.7262 104.4C68.7262 104.4 68.7262 104.4 68.7219 104.4C68.7219 104.4 68.7219 104.4 68.7176 104.4C68.7176 104.4 68.7176 104.4 68.7134 104.4C68.7134 104.4 68.7134 104.4 68.7091 104.4C68.7091 104.4 68.7091 104.4 68.7048 104.4C68.7048 104.4 68.7048 104.4 68.7006 104.396C68.7006 104.396 68.7006 104.396 68.6963 104.396C68.6963 104.396 68.6963 104.396 68.692 104.391C68.692 104.391 68.6835 104.387 68.6835 104.383C68.6835 104.383 68.6835 104.383 68.6792 104.379C68.6792 104.379 68.6792 104.379 68.675 104.379C68.675 104.379 68.675 104.379 68.6707 104.379C68.6707 104.379 68.6707 104.379 68.6664 104.379C68.6664 104.379 68.6664 104.379 68.6622 104.379C68.6622 104.379 68.6622 104.379 68.6579 104.379C68.6579 104.379 68.6579 104.379 68.6536 104.379C68.6536 104.379 68.6536 104.379 68.6493 104.374C68.6493 104.374 68.6493 104.374 68.6451 104.374C68.6451 104.374 68.6451 104.374 68.6408 104.37C68.6408 104.37 68.6408 104.37 68.6365 104.37C68.6365 104.37 68.6365 104.37 68.6323 104.366C68.6323 104.366 68.6323 104.366 68.628 104.366C68.628 104.366 68.628 104.366 68.6237 104.362C68.6237 104.362 68.6152 104.357 68.6152 104.353C68.6152 104.353 68.6152 104.353 68.6109 104.349C68.6109 104.349 68.6109 104.349 68.6067 104.349C68.6067 104.349 68.6067 104.349 68.6024 104.344C68.6024 104.344 68.6024 104.344 68.5981 104.34C68.5981 104.34 68.5981 104.34 68.5939 104.336C68.5939 104.336 68.5939 104.336 68.5896 104.332C68.5896 104.332 68.5896 104.332 68.5853 104.332C68.5853 104.332 68.5853 104.332 68.5811 104.327C68.5811 104.327 68.5811 104.327 68.5768 104.327C68.5768 104.327 68.5768 104.327 68.5725 104.323C68.5725 104.323 68.564 104.319 68.564 104.315C68.564 104.315 68.5554 104.31 68.5554 104.306C68.5554 104.306 68.5469 104.302 68.5469 104.297C68.5469 104.297 68.5469 104.297 68.5426 104.293C68.5426 104.293 68.5426 104.293 68.5384 104.289C68.5384 104.289 68.5384 104.289 68.5341 104.285C68.5341 104.285 68.5341 104.285 68.5298 104.28C68.5298 104.28 68.5298 104.28 68.5256 104.28C68.5256 104.28 68.5256 104.28 68.5213 104.28C68.5213 104.28 68.5213 104.28 68.517 104.276C68.517 104.276 68.517 104.276 68.5128 104.272C68.5128 104.272 68.5128 104.272 68.5085 104.268C68.5085 104.268 68.5085 104.268 68.5042 104.268C68.5042 104.268 68.5042 104.268 68.5 104.263C68.5 104.263 68.5 104.263 68.4957 104.259C68.4957 104.259 68.4957 104.259 68.4914 104.255C68.4914 104.255 68.4914 104.255 68.4871 104.251C68.4871 104.251 68.4872 104.251 68.4829 104.246C68.4829 104.246 68.4786 104.242 68.4743 104.238C68.4743 104.238 68.4743 104.238 68.4701 104.233C68.4701 104.233 68.4701 104.233 68.4658 104.229C68.4658 104.229 68.4658 104.229 68.4615 104.225C68.4615 104.225 68.4615 104.225 68.4573 104.221C68.4573 104.221 68.4573 104.221 68.453 104.216C68.453 104.216 68.453 104.216 68.4487 104.216C68.4487 104.216 68.4487 104.216 68.4445 104.212C68.4445 104.212 68.4445 104.212 68.4402 104.208C68.4402 104.208 68.4402 104.208 68.4359 104.204C68.4359 104.204 68.4359 104.204 68.4317 104.204C68.4317 104.204 68.4317 104.204 68.4274 104.199C68.4274 104.199 68.4274 104.199 68.4231 104.195C68.4231 104.195 68.4231 104.195 68.4189 104.191C68.4189 104.191 68.4146 104.187 68.4103 104.182C68.4103 104.182 68.4061 104.178 68.4018 104.174C68.4018 104.174 68.3932 104.169 68.3932 104.165C68.3932 104.165 68.3932 104.165 68.389 104.161C68.389 104.161 68.389 104.161 68.3847 104.157C68.3847 104.157 68.3847 104.157 68.3804 104.152C68.3804 104.152 68.3804 104.152 68.3762 104.148C68.3762 104.148 68.3762 104.148 68.3719 104.144C68.3719 104.144 68.3719 104.144 68.3676 104.14C68.3676 104.14 68.3676 104.14 68.3634 104.135C68.3634 104.135 68.3634 104.135 68.3591 104.131C68.3591 104.131 68.3591 104.131 68.3548 104.127C68.3548 104.127 68.3548 104.127 68.3506 104.122C68.3506 104.122 68.3463 104.118 68.342 104.114C68.342 104.114 68.342 104.114 68.3378 104.11C68.3378 104.11 68.3378 104.11 68.3335 104.105C68.3335 104.105 68.3292 104.101 68.325 104.097C68.325 104.097 68.325 104.097 68.3207 104.093C68.3207 104.093 68.3207 104.093 68.3164 104.088C68.3164 104.088 68.3164 104.088 68.3121 104.084C68.3121 104.084 68.3121 104.084 68.3079 104.08C68.3079 104.08 68.3079 104.08 68.3036 104.076C68.3036 104.076 68.3036 104.076 68.2993 104.071C68.2993 104.071 68.2993 104.071 68.2951 104.067C68.2951 104.067 68.2951 104.067 68.2908 104.063C68.2908 104.063 68.2908 104.063 68.2865 104.058C68.2865 104.058 68.2865 104.058 68.2823 104.054C68.2823 104.054 68.2823 104.054 68.278 104.05C68.278 104.05 68.2737 104.046 68.2695 104.041C68.2695 104.041 68.2652 104.037 68.2609 104.033C68.2609 104.033 68.2609 104.033 68.2567 104.029C68.2567 104.029 68.2567 104.029 68.2524 104.024C68.2524 104.024 68.2524 104.024 68.2481 104.02C68.2481 104.02 68.2481 104.02 68.2481 104.016C68.2481 104.016 68.2481 104.016 68.2439 104.012C68.2439 104.012 68.2439 104.012 68.2439 104.007C68.2439 104.007 68.2439 104.007 68.2396 104.003C68.2396 104.003 68.2396 104.003 68.2353 103.999C68.2353 103.999 68.2353 103.999 68.2311 103.994C68.2311 103.994 68.2268 103.986 68.2225 103.986C68.2225 103.986 68.2225 103.986 68.2182 103.982C68.2182 103.982 68.2182 103.982 68.214 103.977C68.214 103.977 68.2097 103.973 68.2054 103.969C68.2054 103.969 68.2012 103.965 68.1969 103.96C68.1969 103.96 68.1926 103.956 68.1884 103.952C68.1884 103.952 68.1884 103.952 68.1841 103.947C68.1841 103.947 68.1841 103.947 68.1798 103.943C68.1798 103.943 68.1798 103.943 68.1756 103.939C68.1756 103.939 68.1756 103.939 68.1713 103.935C68.1713 103.935 68.1713 103.935 68.1713 103.93C68.1713 103.93 68.1713 103.93 68.1713 103.926C68.1713 103.926 68.1713 103.926 68.1713 103.922C68.1713 103.922 68.1713 103.922 68.1713 103.918C68.1713 103.918 68.1713 103.918 68.1713 103.913C68.1713 103.913 68.167 103.909 68.1628 103.905C68.1628 103.905 68.1585 103.901 68.1542 103.896C68.1542 103.896 68.1499 103.892 68.1457 103.888C68.1457 103.888 68.1457 103.888 68.1414 103.883C68.1414 103.883 68.1414 103.883 68.1414 103.879C68.1414 103.879 68.1414 103.879 68.1414 103.875C68.1414 103.875 68.1414 103.875 68.1414 103.871C68.1414 103.871 68.1414 103.871 68.1371 103.866C68.1371 103.866 68.1371 103.866 68.1371 103.862C68.1371 103.862 68.1371 103.862 68.1329 103.858C68.1329 103.858 68.1329 103.858 68.1329 103.854C68.1329 103.854 68.1329 103.854 68.1329 103.849C68.1329 103.849 68.1329 103.849 68.1329 103.845C68.1329 103.845 68.1329 103.845 68.1329 103.841C68.1329 103.841 68.1286 103.837 68.1243 103.832C68.1243 103.832 68.1201 103.824 68.1158 103.824C68.1158 103.824 68.1115 103.815 68.1073 103.815C68.1073 103.815 68.1073 103.815 68.103 103.811C68.103 103.811 68.103 103.811 68.103 103.807C68.103 103.807 68.103 103.807 68.103 103.802C68.103 103.802 68.103 103.802 68.103 103.798C68.103 103.798 68.103 103.798 68.103 103.794C68.103 103.794 68.103 103.794 68.103 103.79C68.103 103.79 68.103 103.79 68.103 103.785C68.103 103.785 68.103 103.785 68.103 103.781C68.103 103.781 68.103 103.781 68.103 103.777C68.103 103.777 68.0987 103.772 68.0945 103.768C68.0945 103.768 68.0902 103.764 68.0859 103.76C68.0859 103.76 68.0817 103.751 68.0774 103.751C68.0774 103.751 68.0774 103.751 68.0774 103.747C68.0774 103.747 68.0774 103.747 68.0774 103.743C68.0774 103.743 68.0731 103.734 68.0689 103.734C68.0689 103.734 68.0689 103.734 68.0689 103.73C68.0689 103.73 68.0689 103.73 68.0689 103.726C68.0689 103.726 68.0689 103.726 68.0689 103.721C68.0689 103.721 68.0689 103.721 68.0689 103.717C68.0689 103.717 68.0689 103.717 68.0689 103.713C68.0689 103.713 68.0689 103.713 68.0689 103.708C68.0689 103.708 68.0689 103.708 68.0689 103.704C68.0689 103.704 68.0646 103.696 68.0603 103.696C68.0603 103.696 68.056 103.687 68.0518 103.687C68.0518 103.687 68.0475 103.679 68.0432 103.679C68.0432 103.679 68.0432 103.679 68.0432 103.674C68.0432 103.674 68.0432 103.674 68.0432 103.67C68.0432 103.67 68.0432 103.67 68.0432 103.666C68.0432 103.666 68.0432 103.666 68.0432 103.662C68.0432 103.662 68.0432 103.662 68.0432 103.657C68.0432 103.657 68.0432 103.657 68.0432 103.653C68.0432 103.653 68.0432 103.653 68.0432 103.649C68.0432 103.649 68.0432 103.649 68.0432 103.644C68.0432 103.644 68.0432 103.644 68.0432 103.64C68.0432 103.64 68.0432 103.64 68.0432 103.636C68.0432 103.636 68.0432 103.636 68.0432 103.632C68.0432 103.632 68.039 103.627 68.0347 103.623C68.0347 103.623 68.0304 103.619 68.0262 103.615C68.0262 103.615 68.0219 103.606 68.0176 103.606C68.0176 103.606 68.0134 103.597 68.0091 103.597C68.0091 103.597 68.0091 103.597 68.0091 103.593C68.0091 103.593 68.0091 103.593 68.0091 103.589C68.0091 103.589 68.0091 103.589 68.0091 103.585C68.0091 103.585 68.0091 103.585 68.0091 103.58C68.0091 103.58 68.0091 103.58 68.0091 103.576C68.0091 103.576 68.0091 103.576 68.0091 103.572C68.0091 103.572 68.0091 103.572 68.0091 103.568C68.0091 103.568 68.0091 103.568 68.0091 103.563C68.0091 103.563 68.0091 103.563 68.0091 103.559C68.0091 103.559 68.0048 103.551 68.0006 103.551C68.0006 103.551 67.9963 103.542 67.992 103.542C67.992 103.542 67.9878 103.538 67.9835 103.533C67.9835 103.533 67.9835 103.533 67.9835 103.529C67.9835 103.529 67.9835 103.529 67.9835 103.525C67.9835 103.525 67.9835 103.525 67.9835 103.521C67.9835 103.521 67.9835 103.521 67.9835 103.516C67.9835 103.516 67.9835 103.516 67.9835 103.512C67.9835 103.512 67.9835 103.512 67.9835 103.508C67.9835 103.508 67.9835 103.508 67.9835 103.504C67.9835 103.504 67.9835 103.504 67.9835 103.499C67.9835 103.499 67.9835 103.499 67.9835 103.495C67.9835 103.495 67.9835 103.495 67.9835 103.491C67.9835 103.491 67.9835 103.491 67.9835 103.487C67.9835 103.487 67.9792 103.478 67.9749 103.478C67.9749 103.478 67.9707 103.469 67.9664 103.469C67.9664 103.469 67.9621 103.461 67.9579 103.461C67.9579 103.461 67.9536 103.452 67.9493 103.452C67.9493 103.452 67.9451 103.444 67.9408 103.444C67.9408 103.444 67.9408 103.444 67.9408 103.44C67.9408 103.44 67.9408 103.44 67.9408 103.435C67.9408 103.435 67.9408 103.435 67.9408 103.431C67.9408 103.431 67.9408 103.431 67.9408 103.427C67.9408 103.427 67.9408 103.427 67.9408 103.422C67.9408 103.422 67.9408 103.422 67.9408 103.418C67.9408 103.418 67.9408 103.418 67.9408 103.414C67.9408 103.414 67.9408 103.414 67.9408 103.41C67.9408 103.41 67.9408 103.41 67.9408 103.405C67.9408 103.405 67.9365 103.397 67.9323 103.397C67.9323 103.397 67.928 103.388 67.9237 103.388C67.9237 103.388 67.9195 103.38 67.9152 103.38C67.9152 103.38 67.9152 103.38 67.9152 103.376C67.9152 103.376 67.9152 103.376 67.9152 103.371C67.9152 103.371 67.9152 103.371 67.9152 103.367C67.9152 103.367 67.9152 103.367 67.9152 103.363C67.9152 103.363 67.9152 103.363 67.9152 103.358C67.9152 103.358 67.9152 103.358 67.9152 103.354C67.9152 103.354 67.9152 103.354 67.9152 103.35C67.9152 103.35 67.9152 103.35 67.9152 103.346C67.9152 103.346 67.9152 103.346 67.9152 103.341C67.9152 103.341 67.9109 103.333 67.9067 103.333C67.9067 103.333 67.9024 103.324 67.8981 103.324C67.8981 103.324 67.8939 103.32 67.8896 103.316C67.8896 103.316 67.8853 103.307 67.881 103.307C67.881 103.307 67.8768 103.299 67.8725 103.299C67.8725 103.299 67.8682 103.29 67.864 103.29C67.864 103.29 67.864 103.29 67.864 103.286C67.864 103.286 67.864 103.286 67.864 103.282C67.864 103.282 67.864 103.282 67.864 103.277C67.864 103.277 67.864 103.277 67.864 103.273C67.864 103.273 67.864 103.273 67.864 103.269C67.864 103.269 67.864 103.269 67.864 103.265C67.864 103.265 67.864 103.265 67.864 103.26C67.864 103.26 67.864 103.26 67.864 103.256C67.864 103.256 67.864 103.256 67.864 103.252C67.864 103.252 67.8597 103.247 67.8554 103.243C67.8554 103.243 67.8554 103.243 67.8554 103.239C67.8554 103.239 67.8554 103.239 67.8554 103.235C67.8554 103.235 67.8554 103.235 67.8554 103.23C67.8554 103.23 67.8554 103.23 67.8554 103.226C67.8554 103.226 67.8554 103.226 67.8554 103.222C67.8554 103.222 67.8554 103.222 67.8554 103.218C67.8554 103.218 67.8554 103.218 67.8554 103.213C67.8554 103.213 67.8554 103.213 67.8554 103.209C67.8554 103.209 67.8554 103.209 67.8554 103.205C67.8554 103.205 67.8554 103.205 67.8554 103.201C67.8554 103.201 67.8554 103.201 67.8554 103.196C67.8554 103.196 67.8512 103.188 67.8469 103.188C67.8469 103.188 67.8426 103.179 67.8384 103.179C67.8384 103.179 67.8384 103.171 67.8341 103.171C67.8341 103.171 67.8341 103.162 67.8256 103.162C67.8256 103.162 67.8213 103.154 67.817 103.154C67.817 103.154 67.8128 103.145 67.8085 103.145C67.8085 103.145 67.8085 103.145 67.8085 103.141C67.8085 103.141 67.8085 103.141 67.8085 103.137C67.8085 103.137 67.8085 103.136 67.8085 103.132C67.8085 103.132 67.8085 103.132 67.8085 103.128C67.8085 103.128 67.8085 103.128 67.8085 103.124C67.8085 103.124 67.8042 103.115 67.7999 103.115L67.7957 103.107C67.7957 103.107 67.7957 103.098 67.7914 103.098C67.7914 103.098 67.7914 103.09 67.7871 103.09C67.7871 103.09 67.7871 103.081 67.7829 103.081C67.7829 103.081 67.7829 103.081 67.7829 103.077C67.7829 103.077 67.7829 103.077 67.7829 103.072C67.7829 103.072 67.7829 103.072 67.7829 103.068C67.7829 103.068 67.7829 103.068 67.7829 103.064C67.7829 103.064 67.7829 103.064 67.7829 103.06C67.7829 103.06 67.7829 103.051 67.7786 103.051C67.7786 103.051 67.7786 103.043 67.7743 103.043C67.7743 103.043 67.7743 103.034 67.7701 103.034C67.7701 103.034 67.7701 103.026 67.7658 103.026C67.7658 103.026 67.7658 103.017 67.7615 103.017C67.7615 103.017 67.7615 103.008 67.7573 103.008C67.7573 103.008 67.7573 103 67.753 103C67.753 103 67.753 103 67.753 102.996C67.753 102.996 67.753 102.996 67.753 102.991C67.753 102.991 67.753 102.991 67.753 102.987C67.753 102.987 67.753 102.987 67.753 102.983C67.753 102.983 67.753 102.983 67.753 102.979C67.753 102.979 67.753 102.979 67.753 102.974C67.753 102.974 67.753 102.974 67.753 102.97C67.753 102.97 67.753 102.97 67.753 102.966C67.753 102.966 67.753 102.966 67.753 102.961C67.753 102.961 67.753 102.953 67.7487 102.953C67.7487 102.953 67.7487 102.944 67.7445 102.944C67.7445 102.944 67.7445 102.936 67.7402 102.936C67.7402 102.936 67.7402 102.927 67.7359 102.927C67.7359 102.927 67.7359 102.927 67.7359 102.923C67.7359 102.923 67.7359 102.923 67.7359 102.919C67.7359 102.919 67.7359 102.919 67.7359 102.915C67.7359 102.915 67.7359 102.915 67.7359 102.91C67.7359 102.91 67.7359 102.91 67.7359 102.906C67.7359 102.906 67.7359 102.906 67.7359 102.902C67.7359 102.902 67.7359 102.902 67.7359 102.897C67.7359 102.897 67.7359 102.889 67.7316 102.889C67.7316 102.889 67.7317 102.88 67.7274 102.88C67.7274 102.88 67.7274 102.872 67.7231 102.872C67.7231 102.872 67.7231 102.863 67.7188 102.863C67.7188 102.863 67.7188 102.855 67.7146 102.855C67.7146 102.855 67.7146 102.846 67.7103 102.842C67.7103 102.842 67.7103 102.842 67.7103 102.838C67.7103 102.838 67.7103 102.838 67.7103 102.833C67.7103 102.833 67.7103 102.833 67.7103 102.829C67.7103 102.829 67.7103 102.829 67.7103 102.825C67.7103 102.825 67.7103 102.825 67.7103 102.821C67.7103 102.821 67.7103 102.812 67.706 102.812C67.706 102.812 67.706 102.804 67.7018 102.804C67.7018 102.804 67.7018 102.795 67.6975 102.795C67.6975 102.795 67.6975 102.786 67.6932 102.786C67.6932 102.786 67.6932 102.778 67.689 102.774C67.689 102.774 67.689 102.765 67.6847 102.761C67.6847 102.761 67.6847 102.761 67.6847 102.757C67.6847 102.757 67.6847 102.757 67.6847 102.752C67.6847 102.752 67.6847 102.752 67.6847 102.748C67.6847 102.748 67.6847 102.74 67.6804 102.735C67.6804 102.735 67.6804 102.727 67.6762 102.727C67.6762 102.727 67.6762 102.718 67.6719 102.714C67.6719 102.714 67.6719 102.705 67.6676 102.705C67.6676 102.705 67.6676 102.697 67.6634 102.697C67.6634 102.697 67.6634 102.688 67.6591 102.684C67.6591 102.684 67.6591 102.684 67.6591 102.68C67.6591 102.68 67.6591 102.68 67.6591 102.676C67.6591 102.676 67.6591 102.676 67.6591 102.671C67.6591 102.671 67.6591 102.671 67.6591 102.667C67.6591 102.667 67.6591 102.667 67.6591 102.663C67.6591 102.663 67.6591 102.663 67.6591 102.658C67.6591 102.658 67.6591 102.658 67.6591 102.654C67.6591 102.654 67.6591 102.654 67.6591 102.65C67.6591 102.65 67.6591 102.65 67.6591 102.646C67.6591 102.646 67.6591 102.637 67.6548 102.633C67.6548 102.633 67.6548 102.624 67.6506 102.62C67.6506 102.62 67.6506 102.611 67.6463 102.607C67.6463 102.607 67.6463 102.599 67.642 102.594C67.642 102.594 67.642 102.594 67.642 102.59C67.642 102.59 67.642 102.59 67.642 102.586C67.642 102.586 67.642 102.586 67.642 102.582C67.642 102.582 67.642 102.582 67.642 102.577C67.642 102.577 67.642 102.577 67.642 102.573C67.642 102.573 67.642 102.573 67.642 102.569C67.642 102.569 67.642 102.569 67.642 102.565C67.642 102.565 67.642 102.565 67.642 102.56C67.642 102.56 67.642 102.56 67.642 102.556C67.642 102.556 67.642 102.547 67.6378 102.547C67.6378 102.547 67.6377 102.539 67.6335 102.539C67.6335 102.539 67.6335 102.53 67.6292 102.526C67.6292 102.526 67.6292 102.518 67.6249 102.513C67.6249 102.513 67.6249 102.513 67.6249 102.509C67.6249 102.509 67.6249 102.509 67.6249 102.505C67.6249 102.505 67.6249 102.505 67.6249 102.501C67.6249 102.501 67.6249 102.501 67.6249 102.496C67.6249 102.496 67.6249 102.496 67.6249 102.492C67.6249 102.492 67.6249 102.492 67.6249 102.488C67.6249 102.488 67.6249 102.488 67.6249 102.483C67.6249 102.483 67.6249 102.483 67.6249 102.479C67.6249 102.479 67.6249 102.479 67.6249 102.475C67.6249 102.475 67.6249 102.475 67.6249 102.471C67.6249 102.471 67.6249 102.471 67.6249 102.466V102.458V102.449C67.6249 102.449 67.6249 102.441 67.6249 102.436C67.6249 102.436 67.6249 102.436 67.6249 102.432C67.6249 102.432 67.6249 102.432 67.6249 102.428C67.6249 102.428 67.6249 102.428 67.6249 102.424C67.6249 102.424 67.6249 102.424 67.6249 102.419C67.6249 102.419 67.6249 102.419 67.6249 102.415C67.6249 102.415 67.6249 102.415 67.6249 102.411C67.6249 102.411 67.6249 102.411 67.6249 102.407C67.6249 102.407 67.6249 102.407 67.6249 102.402C67.6249 102.402 67.6249 102.402 67.6249 102.398C67.6249 102.398 67.6249 102.398 67.6249 102.394C67.6249 102.394 67.6249 102.394 67.6249 102.39V102.381C67.6249 102.381 67.6249 102.372 67.6249 102.368C67.6249 102.368 67.6249 102.368 67.6249 102.364C67.6249 102.364 67.6249 102.364 67.6249 102.36C67.6249 102.36 67.6249 102.36 67.6249 102.355C67.6249 102.355 67.6249 102.355 67.6249 102.351C67.6249 102.351 67.6249 102.351 67.6249 102.347C67.6249 102.347 67.6249 102.347 67.6249 102.343C67.6249 102.343 67.6249 102.343 67.6249 102.338C67.6249 102.338 67.6249 102.338 67.6249 102.334C67.6249 102.334 67.6249 102.334 67.6249 102.33C67.6249 102.33 67.6249 102.33 67.6249 102.326C67.6249 102.326 67.6249 102.326 67.6249 102.321C67.6249 102.321 67.6249 102.313 67.6249 102.308V102.3V102.291C67.6249 102.291 67.6249 102.291 67.6249 102.287C67.6249 102.287 67.6249 102.287 67.6249 102.283C67.6249 102.283 67.6249 102.283 67.6249 102.279C67.6249 102.279 67.6249 102.279 67.6249 102.274C67.6249 102.274 67.6249 102.274 67.6249 102.27C67.6249 102.27 67.6249 102.27 67.6249 102.266C67.6249 102.266 67.6249 102.266 67.6249 102.261C67.6249 102.261 67.6249 102.261 67.6249 102.257C67.6249 102.257 67.6249 102.257 67.6249 102.253C67.6249 102.253 67.6249 102.253 67.6249 102.249C67.6249 102.249 67.6249 102.249 67.6249 102.244C67.6249 102.244 67.6249 102.244 67.6249 102.24C67.6249 102.24 67.6249 102.24 67.6249 102.236V102.227V102.219C67.6249 102.219 67.6249 102.219 67.6249 102.215C67.6249 102.215 67.6249 102.215 67.6249 102.21C67.6249 102.21 67.6249 102.21 67.6249 102.206C67.6249 102.206 67.6249 102.206 67.6249 102.202C67.6249 102.202 67.6249 102.202 67.6249 102.197C67.6249 102.197 67.6249 102.197 67.6249 102.193C67.6249 102.193 67.6249 102.193 67.6249 102.189C67.6249 102.189 67.6249 102.189 67.6249 102.185C67.6249 102.185 67.6249 102.185 67.6249 102.18C67.6249 102.18 67.6249 102.18 67.6249 102.176C67.6249 102.176 67.6249 102.176 67.6249 102.172C67.6249 102.172 67.6249 102.172 67.6249 102.168C67.6249 102.168 67.6249 102.168 67.6249 102.163V102.155V102.146V102.138C67.6249 102.138 67.6249 102.138 67.6249 102.133C67.6249 102.133 67.6249 102.133 67.6249 102.129C67.6249 102.129 67.6249 102.129 67.6249 102.125C67.6249 102.125 67.6249 102.125 67.6249 102.121C67.6249 102.121 67.6249 102.121 67.6249 102.116C67.6249 102.116 67.6249 102.116 67.6249 102.112C67.6249 102.112 67.6249 102.112 67.6249 102.108C67.6249 102.108 67.6249 102.108 67.6249 102.104C67.6249 102.104 67.6249 102.104 67.6249 102.099C67.6249 102.099 67.6249 102.099 67.6249 102.095C67.6249 102.095 67.6249 102.095 67.6249 102.091C67.6249 102.091 67.6249 102.091 67.6249 102.086C67.6249 102.086 67.6249 102.086 67.6249 102.082V102.074C67.6249 102.074 67.6249 102.065 67.6249 102.061C67.6249 102.061 67.6249 102.061 67.6249 102.057C67.6249 102.057 67.6249 102.057 67.6249 102.052C67.6249 102.052 67.6249 102.052 67.6249 102.048C67.6249 102.048 67.6249 102.048 67.6249 102.044C67.6249 102.044 67.6249 102.044 67.6249 102.04C67.6249 102.04 67.6249 102.04 67.6249 102.035C67.6249 102.035 67.6249 102.035 67.6249 102.031C67.6249 102.031 67.6249 102.031 67.6249 102.027C67.6249 102.027 67.6249 102.027 67.6249 102.022C67.6249 102.022 67.6249 102.022 67.6249 102.018C67.6249 102.018 67.6249 102.018 67.6249 102.014C67.6249 102.014 67.6249 102.014 67.6249 102.01C67.6249 102.01 67.6249 102.01 67.6249 102.005V101.997V101.988C67.6249 101.988 67.6249 101.988 67.6249 101.984C67.6249 101.984 67.6249 101.984 67.6249 101.98C67.6249 101.98 67.6249 101.98 67.6249 101.976C67.6249 101.976 67.6249 101.976 67.6249 101.971C67.6249 101.971 67.6249 101.971 67.6249 101.967C67.6249 101.967 67.6249 101.967 67.6249 101.963C67.6249 101.963 67.6249 101.963 67.6249 101.958C67.6249 101.958 67.6249 101.958 67.6249 101.954C67.6249 101.954 67.6249 101.954 67.6249 101.95C67.6249 101.95 67.6249 101.95 67.6249 101.946C67.6249 101.946 67.6249 101.946 67.6249 101.941C67.6249 101.941 67.6249 101.941 67.6249 101.937C67.6249 101.937 67.6249 101.937 67.6249 101.933V101.924V101.916C67.6249 101.916 67.6249 101.916 67.6249 101.911C67.6249 101.911 67.6249 101.911 67.6249 101.907C67.6249 101.907 67.6249 101.907 67.6249 101.903C67.6249 101.903 67.6249 101.903 67.6249 101.899C67.6249 101.899 67.6249 101.899 67.6249 101.894C67.6249 101.894 67.6249 101.894 67.6249 101.89C67.6249 101.89 67.6249 101.89 67.6249 101.886C67.6249 101.886 67.6249 101.886 67.6249 101.882C67.6249 101.882 67.6249 101.882 67.6249 101.877C67.6249 101.877 67.6249 101.877 67.6249 101.873C67.6249 101.873 67.6249 101.873 67.6249 101.869C67.6249 101.869 67.6249 101.869 67.6249 101.865C67.6249 101.865 67.6249 101.865 67.6249 101.86C67.6249 101.86 67.6249 101.86 67.6249 101.856C67.6249 101.856 67.6249 101.856 67.6249 101.852C67.6249 101.852 67.6249 101.852 67.6249 101.847C67.6249 101.847 67.6249 101.847 67.6249 101.843C67.6249 101.843 67.6249 101.843 67.6249 101.839C67.6249 101.839 67.6249 101.839 67.6249 101.835C67.6249 101.835 67.6249 101.835 67.6249 101.83C67.6249 101.83 67.6249 101.83 67.6249 101.826C67.6249 101.826 67.6249 101.826 67.6249 101.822C67.6249 101.822 67.6249 101.822 67.6249 101.818C67.6249 101.818 67.6249 101.818 67.6249 101.813C67.6249 101.813 67.6249 101.813 67.6249 101.809C67.6249 101.809 67.6249 101.809 67.6249 101.805C67.6249 101.805 67.6249 101.805 67.6249 101.801C67.6249 101.801 67.6249 101.8 67.6249 101.796C67.6249 101.796 67.6249 101.796 67.6249 101.792C67.6249 101.792 67.6249 101.792 67.6249 101.788C67.6249 101.788 67.6249 101.788 67.6249 101.783C67.6249 101.783 67.6249 101.783 67.6249 101.779C67.6249 101.779 67.6249 101.779 67.6249 101.775C67.6249 101.775 67.6249 101.775 67.6249 101.771V101.766V101.762C67.6249 101.762 67.6249 101.762 67.6249 101.758C67.6249 101.758 67.6249 101.758 67.6249 101.754C67.6249 101.754 67.6249 101.754 67.6249 101.749C67.6249 101.749 67.6249 101.749 67.6249 101.745C67.6249 101.745 67.6249 101.745 67.6249 101.741C67.6249 101.741 67.6249 101.741 67.6249 101.736C67.6249 101.736 67.6249 101.736 67.6249 101.732C67.6249 101.732 67.6249 101.732 67.6249 101.728C67.6249 101.728 67.6249 101.728 67.6249 101.724C67.6249 101.724 67.6249 101.724 67.6249 101.719C67.6249 101.719 67.6249 101.719 67.6249 101.715V101.707V101.698C67.6249 101.698 67.6249 101.698 67.6249 101.694C67.6249 101.694 67.6249 101.694 67.6249 101.69C67.6249 101.69 67.6249 101.69 67.6249 101.685C67.6249 101.685 67.6249 101.685 67.6249 101.681C67.6249 101.681 67.6249 101.681 67.6249 101.677C67.6249 101.677 67.6249 101.677 67.6249 101.672C67.6249 101.672 67.6249 101.672 67.6249 101.668C67.6249 101.668 67.6249 101.668 67.6249 101.664C67.6249 101.664 67.6249 101.664 67.6249 101.66C67.6249 101.66 67.6249 101.66 67.6249 101.655C67.6249 101.655 67.6249 101.655 67.6249 101.651C67.6249 101.651 67.6249 101.651 67.6249 101.647V101.638V101.63C67.6249 101.63 67.6249 101.63 67.6249 101.625C67.6249 101.625 67.6249 101.625 67.6249 101.621C67.6249 101.621 67.6249 101.621 67.6249 101.617C67.6249 101.617 67.6249 101.617 67.6249 101.613C67.6249 101.613 67.6249 101.613 67.6249 101.608C67.6249 101.608 67.6249 101.608 67.6249 101.604C67.6249 101.604 67.6249 101.604 67.6249 101.6C67.6249 101.6 67.6249 101.6 67.6249 101.596C67.6249 101.596 67.6249 101.596 67.6249 101.591C67.6249 101.591 67.6249 101.591 67.6249 101.587C67.6249 101.587 67.6249 101.587 67.6249 101.583C67.6249 101.583 67.6249 101.583 67.6249 101.579C67.6249 101.579 67.6249 101.579 67.6249 101.574C67.6249 101.574 67.6249 101.574 67.6249 101.57C67.6249 101.57 67.6249 101.57 67.6249 101.566V101.557C67.6249 101.557 67.6249 101.557 67.6249 101.553C67.6249 101.553 67.6249 101.553 67.6249 101.549C67.6249 101.549 67.6249 101.549 67.6249 101.544C67.6249 101.544 67.6249 101.544 67.6249 101.54C67.6249 101.54 67.6249 101.54 67.6249 101.536C67.6249 101.536 67.6249 101.536 67.6249 101.532C67.6249 101.532 67.6249 101.532 67.6249 101.527C67.6249 101.527 67.6249 101.527 67.6249 101.523C67.6249 101.523 67.6249 101.523 67.6249 101.519C67.6249 101.519 67.6249 101.519 67.6249 101.515C67.6249 101.515 67.6249 101.515 67.6249 101.51C67.6249 101.51 67.6249 101.51 67.6249 101.506C67.6249 101.506 67.6249 101.506 67.6249 101.502V101.493V101.485C67.6249 101.485 67.6249 101.485 67.6249 101.48C67.6249 101.48 67.6249 101.48 67.6249 101.476C67.6249 101.476 67.6249 101.476 67.6249 101.472C67.6249 101.472 67.6249 101.472 67.6249 101.468C67.6249 101.468 67.6249 101.468 67.6249 101.463C67.6249 101.463 67.6249 101.463 67.6249 101.459C67.6249 101.459 67.6249 101.459 67.6249 101.455C67.6249 101.455 67.6249 101.455 67.6249 101.45C67.6249 101.45 67.6249 101.451 67.6249 101.446C67.6249 101.446 67.6249 101.446 67.6249 101.442C67.6249 101.442 67.6249 101.442 67.6249 101.438C67.6249 101.438 67.6249 101.438 67.6249 101.433C67.6249 101.433 67.6249 101.433 67.6249 101.429C67.6249 101.429 67.6249 101.429 67.6249 101.425C67.6249 101.425 67.6249 101.425 67.6249 101.421C67.6249 101.421 67.6249 101.421 67.6249 101.416C67.6249 101.416 67.6249 101.416 67.6249 101.412C67.6249 101.412 67.6249 101.412 67.6249 101.408C67.6249 101.408 67.6249 101.408 67.6249 101.404C67.6249 101.404 67.6249 101.404 67.6249 101.399C67.6249 101.399 67.6249 101.399 67.6249 101.395C67.6249 101.395 67.6249 101.395 67.6249 101.391C67.6249 101.391 67.6249 101.391 67.6249 101.386C67.6249 101.386 67.6249 101.386 67.6249 101.382C67.6249 101.382 67.6249 101.382 67.6249 101.378C67.6249 101.378 67.6249 101.378 67.6249 101.374C67.6249 101.374 67.6249 101.374 67.6249 101.369C67.6249 101.369 67.6249 101.369 67.6249 101.365C67.6249 101.365 67.6249 101.365 67.6249 101.361C67.6249 101.361 67.6249 101.361 67.6249 101.357C67.6249 101.357 67.6249 101.357 67.6249 101.352C67.6249 101.352 67.6249 101.352 67.6249 101.348C67.6249 101.348 67.6249 101.348 67.6249 101.344C67.6249 101.344 67.6249 101.344 67.6249 101.34C67.6249 101.34 67.6249 101.34 67.6249 101.335C67.6249 101.335 67.6249 101.335 67.6249 101.331C67.6249 101.331 67.6249 101.331 67.6249 101.327C67.6249 101.327 67.6249 101.327 67.6249 101.322C67.6249 101.322 67.6249 101.322 67.6249 101.318C67.6249 101.318 67.6249 101.318 67.6249 101.314C67.6249 101.314 67.6249 101.314 67.6249 101.31C67.6249 101.31 67.6249 101.31 67.6249 101.305C67.6249 101.305 67.6249 101.305 67.6249 101.301C67.6249 101.301 67.6249 101.301 67.6249 101.297V101.293C67.6249 101.293 67.6249 101.293 67.6249 101.288C67.6249 101.288 67.6249 101.288 67.6249 101.284V101.275C67.6249 100.836 67.6975 100.409 67.8384 99.995C67.9109 99.7773 68.0048 99.5596 68.1158 99.3462C68.1158 99.3377 68.1243 99.3334 68.1286 99.3249C68.3676 98.8681 68.692 98.4285 69.0933 97.9974C69.1103 97.9803 69.1274 97.959 69.1487 97.9419C69.1616 97.9248 69.1786 97.912 69.1914 97.895C69.2042 97.8822 69.217 97.8693 69.2298 97.8565C69.2597 97.8267 69.2896 97.7968 69.3152 97.7712C70.4506 96.6486 72.1195 95.6413 74.1854 94.7961C78.2446 93.14 83.849 92.1156 90.0424 92.1156H90.0893C90.0893 92.1156 90.0893 92.1156 90.0936 92.1156H90.132C90.132 92.1156 90.132 92.1156 90.1363 92.1156H90.1619H90.1747C90.1747 92.1156 90.1875 92.1156 90.1918 92.1156H90.196H90.2003H90.2131C90.2131 92.1156 90.2174 92.1156 90.2216 92.1156H90.2302C90.2302 92.1156 90.2302 92.1156 90.2344 92.1156H90.243C90.243 92.1156 90.243 92.1156 90.2472 92.1156H90.2558H90.2643H90.2686C90.2686 92.1156 90.2686 92.1156 90.2729 92.1156H90.2814H90.2857C90.2857 92.1156 90.2857 92.1156 90.2899 92.1156H90.2942C90.2985 92.1156 90.307 92.1156 90.3113 92.1156C90.3113 92.1156 90.3155 92.1156 90.3198 92.1156C90.3198 92.1156 90.3198 92.1156 90.3241 92.1156C90.3241 92.1156 90.3241 92.1156 90.3283 92.1156H90.3326C90.3326 92.1156 90.3326 92.1156 90.3369 92.1156H90.3412C90.3412 92.1156 90.3411 92.1156 90.3454 92.1156C90.3454 92.1156 90.3454 92.1156 90.3497 92.1156H90.354C90.354 92.1156 90.3539 92.1156 90.3582 92.1156H90.3625C90.3625 92.1156 90.3625 92.1156 90.3668 92.1156C90.3668 92.1156 90.3668 92.1156 90.371 92.1156C90.371 92.1156 90.371 92.1156 90.3753 92.1156C90.3753 92.1156 90.3753 92.1156 90.3796 92.1156C90.3838 92.1156 90.3796 92.1156 90.3838 92.1156H90.3881C90.3881 92.1156 90.3881 92.1156 90.3924 92.1156H90.3966C90.3966 92.1156 90.3966 92.1156 90.4009 92.1156C90.4052 92.1156 90.4137 92.1156 90.418 92.1156C90.418 92.1156 90.4222 92.1156 90.4265 92.1156C90.4265 92.1156 90.4351 92.1156 90.4436 92.1156C90.4436 92.1156 90.4436 92.1156 90.4479 92.1156H90.4521C90.4521 92.1156 90.4521 92.1156 90.4564 92.1156C90.4564 92.1156 90.4564 92.1156 90.4607 92.1156C90.4607 92.1156 90.4607 92.1156 90.4649 92.1156C90.4649 92.1156 90.4649 92.1156 90.4692 92.1156H90.4735C90.4735 92.1156 90.4735 92.1156 90.4777 92.1156C90.4777 92.1156 90.4777 92.1156 90.482 92.1156C90.482 92.1156 90.482 92.1156 90.4863 92.1156C90.4863 92.1156 90.4863 92.1156 90.4905 92.1156C90.4905 92.1156 90.4905 92.1156 90.4948 92.1156C90.4948 92.1156 90.4948 92.1156 90.4991 92.1156C90.4991 92.1156 90.5033 92.1156 90.5076 92.1156C90.5076 92.1156 90.5119 92.1156 90.5162 92.1156C90.5162 92.1156 90.5204 92.1156 90.5247 92.1156C90.5247 92.1156 90.529 92.1156 90.5332 92.1156H90.5418C90.5418 92.1156 90.546 92.1156 90.5503 92.1156C90.5503 92.1156 90.5503 92.1156 90.5546 92.1156C90.5546 92.1156 90.5546 92.1156 90.5588 92.1156C90.5588 92.1156 90.5588 92.1156 90.5631 92.1156C90.5631 92.1156 90.5631 92.1156 90.5674 92.1156C90.5674 92.1156 90.5674 92.1156 90.5716 92.1156C90.5759 92.1156 90.5716 92.1156 90.5759 92.1156C90.5759 92.1156 90.5759 92.1156 90.5802 92.1156C90.5802 92.1156 90.5802 92.1156 90.5844 92.1156C90.5844 92.1156 90.5844 92.1156 90.5887 92.1156C90.5887 92.1156 90.5887 92.1156 90.593 92.1156C90.593 92.1156 90.593 92.1156 90.5972 92.1156C90.5972 92.1156 90.5972 92.1156 90.6015 92.1156C90.6015 92.1156 90.6015 92.1156 90.6058 92.1156C90.6058 92.1156 90.6058 92.1156 90.6101 92.1156C90.6101 92.1156 90.6101 92.1156 90.6143 92.1156C90.6143 92.1156 90.6186 92.1156 90.6229 92.1156C90.6229 92.1156 90.6357 92.1156 90.6399 92.1156C90.6442 92.1156 90.6527 92.1156 90.657 92.1156C90.657 92.1156 90.6613 92.1156 90.6655 92.1156C90.6655 92.1156 90.6655 92.1156 90.6698 92.1156C90.6698 92.1156 90.6698 92.1156 90.6741 92.1156C90.6741 92.1156 90.6741 92.1156 90.6783 92.1156C90.6783 92.1156 90.6783 92.1156 90.6826 92.1156C90.6826 92.1156 90.6869 92.1156 90.6911 92.1156C90.6911 92.1156 90.6912 92.1156 90.6954 92.1156C90.6954 92.1156 90.6954 92.1156 90.6997 92.1156C90.6997 92.1156 90.6997 92.1156 90.704 92.1156C90.704 92.1156 90.704 92.1156 90.7082 92.1156C90.7082 92.1156 90.7082 92.1156 90.7125 92.1156C90.7125 92.1156 90.7125 92.1156 90.7168 92.1156C90.7168 92.1156 90.7168 92.1156 90.721 92.1156C90.721 92.1156 90.721 92.1156 90.7253 92.1156C90.7253 92.1156 90.7253 92.1156 90.7296 92.1156C90.7296 92.1156 90.7296 92.1156 90.7381 92.1156C90.7381 92.1156 90.7424 92.1156 90.7466 92.1156C90.7466 92.1156 90.7466 92.1156 90.7509 92.1156C90.7509 92.1156 90.7552 92.1156 90.7594 92.1156H90.7637C90.7637 92.1156 90.7637 92.1156 90.768 92.1156C90.768 92.1156 90.768 92.1156 90.7722 92.1156C90.7722 92.1156 90.7723 92.1156 90.7765 92.1156C90.7765 92.1156 90.7765 92.1156 90.7808 92.1156C90.7808 92.1156 90.7808 92.1156 90.7851 92.1156C90.7851 92.1156 90.7851 92.1156 90.7893 92.1156C90.7893 92.1156 90.7893 92.1156 90.7936 92.1156C90.7936 92.1156 90.7936 92.1156 90.7979 92.1156H90.8021C90.8021 92.1156 90.8021 92.1156 90.8064 92.1156C90.8064 92.1156 90.8064 92.1156 90.8107 92.1156C90.8107 92.1156 90.8149 92.1156 90.8192 92.1156C90.8192 92.1156 90.8235 92.1156 90.8277 92.1156C90.8277 92.1156 90.8405 92.1156 90.8448 92.1156C90.8448 92.1156 90.8576 92.1156 90.8619 92.1156C90.8619 92.1156 90.8619 92.1156 90.8662 92.1156C90.8662 92.1156 90.8662 92.1156 90.8704 92.1156C90.8704 92.1156 90.8704 92.1156 90.8747 92.1156C90.8747 92.1156 90.8747 92.1156 90.879 92.1156C90.879 92.1156 90.879 92.1156 90.8832 92.1156C90.8832 92.1156 90.8832 92.1156 90.8875 92.1156C90.8875 92.1156 90.8875 92.1156 90.8918 92.1156C90.8918 92.1156 90.8918 92.1156 90.896 92.1156C90.896 92.1156 90.896 92.1156 90.9003 92.1156C90.9003 92.1156 90.9003 92.1156 90.9046 92.1156C90.9046 92.1156 90.9046 92.1156 90.9088 92.1156C90.9088 92.1156 90.9088 92.1156 90.9174 92.1156C90.9174 92.1156 90.9174 92.1156 90.9216 92.1156C90.9216 92.1156 90.9259 92.1156 90.9302 92.1156C90.9302 92.1156 90.9345 92.1156 90.9387 92.1156C90.9387 92.1156 90.943 92.1156 90.9473 92.1156C90.9473 92.1156 90.9515 92.1156 90.9558 92.1156C90.9558 92.1156 90.9558 92.1156 90.9601 92.1156C90.9601 92.1156 90.9601 92.1156 90.9643 92.1156C90.9643 92.1156 90.9643 92.1156 90.9686 92.1156C90.9686 92.1156 90.9686 92.1156 90.9729 92.1156C90.9729 92.1156 90.9729 92.1156 90.9771 92.1156C90.9771 92.1156 90.9771 92.1156 90.9814 92.1156C90.9814 92.1156 90.9814 92.1156 90.9857 92.1156C90.9857 92.1156 90.9857 92.1156 90.9899 92.1156C90.9899 92.1156 90.9899 92.1156 90.9942 92.1156C90.9942 92.1156 90.9942 92.1156 90.9985 92.1156C90.9985 92.1156 90.9985 92.1156 91.0027 92.1156C91.0027 92.1156 91.0027 92.1156 91.007 92.1156C91.007 92.1156 91.007 92.1156 91.0113 92.1156C91.0113 92.1156 91.0113 92.1156 91.0155 92.1156C91.0155 92.1156 91.0156 92.1156 91.0198 92.1156C91.0198 92.1156 91.0198 92.1156 91.0241 92.1156C91.0241 92.1156 91.0241 92.1156 91.0284 92.1156C91.0284 92.1156 91.0284 92.1156 91.0326 92.1156C91.0326 92.1156 91.0326 92.1156 91.0369 92.1156C91.0369 92.1156 91.0369 92.1156 91.0412 92.1156C91.0412 92.1156 91.0412 92.1156 91.0454 92.1156C91.0497 92.1156 91.0582 92.1156 91.0625 92.1156H91.0668C91.0668 92.1156 91.071 92.1156 91.0753 92.1156C91.0753 92.1156 91.0753 92.1156 91.0796 92.1156C91.0796 92.1156 91.0796 92.1156 91.0838 92.1156C91.0838 92.1156 91.0838 92.1156 91.0881 92.1156C91.0881 92.1156 91.0881 92.1156 91.0924 92.1156C91.0924 92.1156 91.0924 92.1156 91.0966 92.1156C91.0966 92.1156 91.0967 92.1156 91.1009 92.1156H91.1052C91.1052 92.1156 91.1052 92.1156 91.1095 92.1156C91.1095 92.1156 91.1095 92.1156 91.1137 92.1156C91.1137 92.1156 91.1137 92.1156 91.118 92.1156C91.118 92.1156 91.1223 92.1156 91.1265 92.1156C91.1265 92.1156 91.1265 92.1156 91.1308 92.1156C91.1308 92.1156 91.1308 92.1156 91.1351 92.1156C91.1351 92.1156 91.1351 92.1156 91.1393 92.1156C91.1436 92.1156 91.1521 92.1156 91.1564 92.1156C91.1564 92.1156 91.1564 92.1156 91.1607 92.1156C91.1607 92.1156 91.1607 92.1156 91.1649 92.1156C91.1649 92.1156 91.1649 92.1156 91.1692 92.1156C91.1692 92.1156 91.1692 92.1156 91.1735 92.1156C91.1735 92.1156 91.1735 92.1156 91.1777 92.1156C91.1777 92.1156 91.1778 92.1156 91.182 92.1156C91.182 92.1156 91.1863 92.1156 91.1906 92.1156H91.1948C91.1948 92.1156 91.1948 92.1156 91.1991 92.1156C91.1991 92.1156 91.1991 92.1156 91.2034 92.1156C91.2034 92.1156 91.2034 92.1156 91.2076 92.1156C91.2076 92.1156 91.2076 92.1156 91.2119 92.1156C91.2119 92.1156 91.2119 92.1156 91.2162 92.1156C91.2162 92.1156 91.2162 92.1156 91.2204 92.1156C91.2204 92.1156 91.2204 92.1156 91.2247 92.1156C91.2247 92.1156 91.2247 92.1156 91.229 92.1156C91.229 92.1156 91.229 92.1156 91.2332 92.1156C91.2375 92.1156 91.2418 92.1156 91.2503 92.1156C91.2503 92.1156 91.2546 92.1156 91.2588 92.1156C91.2588 92.1156 91.2589 92.1156 91.2631 92.1156C91.2631 92.1156 91.2631 92.1156 91.2674 92.1156C91.2674 92.1156 91.2674 92.1156 91.2717 92.1156C91.2717 92.1156 91.2717 92.1156 91.2759 92.1156C91.2759 92.1156 91.2759 92.1156 91.2802 92.1156C91.2802 92.1156 91.2802 92.1156 91.2845 92.1156C91.2845 92.1156 91.2845 92.1156 91.2887 92.1156C91.2887 92.1156 91.2887 92.1156 91.293 92.1156C91.293 92.1156 91.293 92.1156 91.2973 92.1156C91.2973 92.1156 91.2973 92.1156 91.3015 92.1156C91.3015 92.1156 91.3015 92.1156 91.3058 92.1156C91.3058 92.1156 91.3058 92.1156 91.3101 92.1156C91.3101 92.1156 91.3101 92.1156 91.3143 92.1156C91.3143 92.1156 91.3143 92.1156 91.3186 92.1156C91.3186 92.1156 91.3186 92.1156 91.3229 92.1156C91.3229 92.1156 91.3229 92.1156 91.3271 92.1156C91.3271 92.1156 91.3271 92.1156 91.3314 92.1156C91.3314 92.1156 91.3314 92.1156 91.3357 92.1156C91.3357 92.1156 91.3357 92.1156 91.3399 92.1156C91.3528 92.1156 91.3656 92.1156 91.3784 92.1156C91.3784 92.1156 91.3826 92.1156 91.3869 92.1156C91.3869 92.1156 91.3912 92.1156 91.3954 92.1156C91.3954 92.1156 91.3997 92.1156 91.404 92.1156C91.404 92.1156 91.4082 92.1156 91.4125 92.1156C91.4125 92.1156 91.4168 92.1156 91.421 92.1156C91.421 92.1156 91.4253 92.1156 91.4296 92.1156C91.4296 92.1156 91.4338 92.1156 91.4381 92.1156C91.4381 92.1156 91.4424 92.1156 91.4467 92.1156C91.4467 92.1156 91.4466 92.1156 91.4509 92.1156H91.4552C91.4552 92.1156 91.4552 92.1156 91.4595 92.1156C91.4595 92.1156 91.4595 92.1156 91.4637 92.1156C91.4637 92.1156 91.4851 92.1156 91.4936 92.1156C91.4936 92.1156 91.4979 92.1156 91.5021 92.1156C91.5021 92.1156 91.5064 92.1156 91.5107 92.1156C91.5107 92.1156 91.5149 92.1156 91.5192 92.1156C91.5192 92.1156 91.5235 92.1156 91.5278 92.1156C91.5278 92.1156 91.532 92.1156 91.5363 92.1156C91.5363 92.1156 91.5406 92.1156 91.5448 92.1156C91.5448 92.1156 91.5448 92.1156 91.5491 92.1156C91.5491 92.1156 91.5491 92.1156 91.5534 92.1156C91.5534 92.1156 91.5534 92.1156 91.5576 92.1156C91.5576 92.1156 91.5576 92.1156 91.5619 92.1156C91.5619 92.1156 91.5619 92.1156 91.5662 92.1156C91.5662 92.1156 91.5662 92.1156 91.5704 92.1156C91.5704 92.1156 91.5747 92.1156 91.579 92.1156C91.579 92.1156 91.596 92.1156 91.6046 92.1156C91.6046 92.1156 91.6046 92.1156 91.6089 92.1156C91.6131 92.1156 91.6217 92.1156 91.6259 92.1156C91.6259 92.1156 91.6302 92.1156 91.6345 92.1156C91.6345 92.1156 91.6387 92.1156 91.643 92.1156C91.643 92.1156 91.6473 92.1156 91.6515 92.1156C91.6515 92.1156 91.6558 92.1156 91.6601 92.1156C91.6601 92.1156 91.6643 92.1156 91.6686 92.1156C91.6686 92.1156 91.6729 92.1156 91.6772 92.1156C91.6772 92.1156 91.6814 92.1156 91.6857 92.1156C91.6857 92.1156 91.6899 92.1156 91.6942 92.1156C91.6942 92.1156 91.707 92.1156 91.7113 92.1156C91.7113 92.1156 91.7454 92.1156 91.7625 92.1156C91.7625 92.1156 91.7668 92.1156 91.771 92.1156C91.771 92.1156 91.7753 92.1156 91.7796 92.1156C91.7796 92.1156 91.7839 92.1156 91.7881 92.1156C91.7881 92.1156 91.7924 92.1156 91.7967 92.1156C91.7967 92.1156 91.8009 92.1156 91.8052 92.1156C91.8052 92.1156 91.8095 92.1156 91.8137 92.1156C91.8137 92.1156 91.8137 92.1156 91.818 92.1156C91.818 92.1156 91.818 92.1156 91.8223 92.1156C91.8223 92.1156 91.8265 92.1156 91.8308 92.1156C91.8308 92.1156 91.8351 92.1156 91.8393 92.1156C91.8564 92.1156 91.8735 92.1156 91.8906 92.1156C91.8906 92.1156 91.8948 92.1156 91.8991 92.1156C91.8991 92.1156 91.9034 92.1156 91.9076 92.1156C91.9076 92.1156 91.9119 92.1156 91.9162 92.1156C91.9162 92.1156 91.9204 92.1156 91.9247 92.1156C91.9247 92.1156 91.929 92.1156 91.9332 92.1156C91.9332 92.1156 91.9375 92.1156 91.9418 92.1156C91.9717 92.1156 92.0015 92.1156 92.0271 92.1156C92.0271 92.1156 92.0314 92.1156 92.0357 92.1156C92.0357 92.1156 92.04 92.1156 92.0442 92.1156C92.0442 92.1156 92.0485 92.1156 92.0528 92.1156C92.0528 92.1156 92.057 92.1156 92.0613 92.1156C92.0613 92.1156 92.0656 92.1156 92.0698 92.1156H92.0741C92.0741 92.1156 92.0784 92.1156 92.0826 92.1156C92.0826 92.1156 92.0869 92.1156 92.0912 92.1156C92.121 92.1156 92.1509 92.1156 92.1765 92.1156C92.1765 92.1156 92.1808 92.1156 92.1851 92.1156C92.1851 92.1156 92.1894 92.1156 92.1936 92.1156C92.1936 92.1156 92.1979 92.1156 92.2022 92.1156C92.2022 92.1156 92.2064 92.1156 92.2107 92.1156C92.2107 92.1156 92.215 92.1156 92.2192 92.1156C92.2192 92.1156 92.2235 92.1156 92.2278 92.1156C92.2576 92.1156 92.2875 92.1156 92.3174 92.1199C92.3174 92.1199 92.3217 92.1199 92.3259 92.1199C92.3259 92.1199 92.3302 92.1199 92.3345 92.1199C92.3345 92.1199 92.3387 92.1199 92.343 92.1199C92.343 92.1199 92.3473 92.1199 92.3515 92.1199C92.3515 92.1199 92.3558 92.1199 92.3601 92.1199C92.3601 92.1199 92.3644 92.1199 92.3686 92.1199C92.4028 92.1199 92.4369 92.1199 92.4711 92.1241C92.4711 92.1241 92.4753 92.1241 92.4796 92.1241C92.4796 92.1241 92.4839 92.1241 92.4881 92.1241C92.5308 92.1241 92.5692 92.1284 92.6119 92.1327C92.6119 92.1327 92.6162 92.1327 92.6205 92.1327C92.6205 92.1327 92.6247 92.1327 92.629 92.1327C92.629 92.1327 92.6333 92.1327 92.6375 92.1327C92.6375 92.1327 92.6418 92.1327 92.6461 92.1327C92.6461 92.1327 92.6503 92.1327 92.6546 92.1327C92.693 92.1327 92.7314 92.1369 92.7656 92.1412C92.7656 92.1412 92.7698 92.1412 92.7741 92.1412C92.8168 92.1412 92.8595 92.1455 92.9022 92.1497C92.9022 92.1497 92.9064 92.1497 92.9107 92.1497C92.9107 92.1497 92.915 92.1497 92.9192 92.1497C98.1224 92.4784 102.736 93.5327 106.113 95.0565C106.198 95.0949 106.288 95.112 106.377 95.112C106.621 95.112 106.855 94.9711 106.962 94.7364C107.107 94.412 106.962 94.0364 106.642 93.8912C102.237 91.9022 95.9839 90.7625 89.4875 90.7625L86.9478 87.732Z" fill="#4D4D4D"/>
<path d="M86.9482 89.0084C74.5614 89.0084 64.5222 93.1103 64.5222 98.1683C64.5222 103.226 74.5614 107.328 86.9482 107.328C99.3349 107.328 109.374 103.226 109.374 98.1683C109.374 93.1103 99.3349 89.0084 86.9482 89.0084Z" stroke="#CCCCCC" stroke-width="1.28051" stroke-linecap="round" stroke-linejoin="round"/>
<mask id="mask0_1140_2" style="mask-type:luminance" maskUnits="userSpaceOnUse" x="76" y="0" width="23" height="100">
<path d="M83.3715 97.5149C83.3715 98.4198 85.1642 99.1497 87.3752 99.1497C89.5862 99.1497 91.3789 98.4198 91.3789 97.5149L98.904 42.6068L90.1368 0H83.6105L76.8835 42.786L83.3757 97.5149H83.3715Z" fill="white"/>
</mask>
<g mask="url(#mask0_1140_2)">
<path d="M87.3567 55.4035V98.3261" stroke="#CCCCCC" stroke-width="7.68305" stroke-linecap="round" stroke-linejoin="round"/>
<path d="M87.3567 55.4035V63.142" stroke="#B3B3B3" stroke-width="10.5599" stroke-linecap="round" stroke-linejoin="round"/>
<path opacity="0.8" d="M87.6256 65.4172C87.3823 64.8111 87.3567 63.4965 87.3567 63.4965V55.4079" stroke="#1D1D1B" stroke-width="3.41469" stroke-linecap="round" stroke-linejoin="round"/>
<path opacity="0.5" d="M85.0881 55.0279V62.425C85.0881 63.3725 85.5064 65.2037 86.5052 65.7201" stroke="#666666" stroke-width="3.84152" stroke-linecap="round" stroke-linejoin="round"/>
<path opacity="0.8" d="M88.1108 70.565V99.0776" stroke="#1D1D1B" stroke-width="3.41469" stroke-linecap="round" stroke-linejoin="round"/>
<path opacity="0.5" d="M85.8484 70.6162V99.0776" stroke="#666666" stroke-width="3.84152" stroke-linecap="round" stroke-linejoin="round"/>
<path d="M87.3592 52.3261C88.4035 52.3261 89.25 51.9802 89.25 51.5535C89.25 51.1268 88.4035 50.7809 87.3592 50.7809C86.3148 50.7809 85.4683 51.1268 85.4683 51.5535C85.4683 51.9802 86.3148 52.3261 87.3592 52.3261Z" fill="#333333" stroke="#333333" stroke-width="0.115246" stroke-miterlimit="10"/>
<path opacity="0.6" d="M84.6288 65.716C83.6257 65.1996 83.2117 63.3684 83.2117 62.4209V55.0238C83.2117 53.5683 84.5221 52.5695 85.9392 52.0573" stroke="#333333" stroke-width="0.853672" stroke-linecap="round" stroke-linejoin="round"/>
<path opacity="0.6" d="M84.3459 99.3164V68.7464" stroke="#333333" stroke-width="0.853672" stroke-linecap="round" stroke-linejoin="round"/>
<g class="flame">
<path opacity="0.4" d="M81.7701 48.4462C80.8055 44.9462 80.5963 41.3992 80.5579 37.818C80.4725 34.2497 80.8311 30.7112 81.4372 27.1898C82.6238 20.0446 83.947 12.9591 85.8763 5.9291C86.1281 5.02421 87.0671 4.49493 87.9763 4.74676C88.5696 4.91323 89.0007 5.37422 89.1587 5.9291C90.1489 9.47184 90.9386 13.0146 91.6599 16.5573C92.6971 21.8586 93.7514 27.1471 94.3106 32.5039C94.6478 37.8436 94.635 43.226 93.2691 48.4505C91.5404 54.2256 83.4689 54.1445 81.7701 48.4505V48.4462Z" fill="#FEF151"/>
<path opacity="0.6" d="M82.963 49.2019C80.8288 40.1444 82.6642 30.993 84.0599 21.9825C84.5636 18.9563 85.1142 15.9343 85.7929 12.908C86.0063 11.9519 86.9582 11.3501 87.9143 11.5635C88.6057 11.7171 89.1094 12.2592 89.2588 12.908C89.9375 15.9343 90.4838 18.9563 90.9917 21.9825C91.7259 26.5113 92.4345 31.0357 92.8869 35.5943C93.19 40.1615 93.1729 44.6817 92.0887 49.2061C90.8381 53.944 84.188 53.8885 82.9715 49.2061L82.963 49.2019Z" fill="#FF8158"/>
<path opacity="0.5" d="M84.2319 49.6669C83.6087 47.1784 83.3953 44.6942 83.2886 42.2058C83.1307 39.7131 83.1947 37.2289 83.5148 34.7447C84.1167 29.7379 84.8167 24.7653 85.9734 19.8225C86.1783 18.9688 87.0362 18.4396 87.8899 18.6444C88.4917 18.7896 88.9357 19.2591 89.068 19.8225C89.6613 22.311 90.1052 24.7952 90.5021 27.2836C91.057 31.0056 91.6546 34.7234 91.8253 38.4752C91.8339 42.2399 91.7015 45.9491 90.8095 49.6669C89.9259 53.0858 85.0856 53.0474 84.2234 49.6669H84.2319Z" fill="#59A2FF"/>
<path opacity="0.4" d="M84.9168 49.6669C84.2552 46.1455 84.3278 42.5985 84.3747 39.0429C84.5241 35.4831 84.7888 31.9404 85.4376 28.419C85.89 26.1397 89.1553 26.1653 89.5949 28.419C90.5169 33.6861 90.82 39.0216 90.6322 44.357C90.5852 46.1284 90.4828 47.8998 90.1157 49.6711C89.8169 51.1096 88.4084 52.0315 86.9742 51.7328C85.9071 51.5108 85.1217 50.6742 84.9126 49.6711L84.9168 49.6669Z" fill="#5242EB"/>
<path d="M85.46 49.6671C84.935 47.1915 84.999 44.6987 85.0331 42.1932C85.1569 39.6877 85.3575 37.195 85.874 34.7193C86.2624 32.9565 88.7893 32.9778 89.1649 34.7193C89.8948 38.4157 90.1296 42.1719 89.9844 45.928C89.946 47.1744 89.8692 48.4165 89.5789 49.6628C89.3143 50.7982 88.1746 51.5068 87.0393 51.2421C86.2325 51.0543 85.6392 50.4226 85.46 49.6628V49.6671Z" fill="#A1FFF4"/>
</g>
</g>
<path opacity="0.8" d="M78.921 109.24L78.3064 113.052" stroke="#1D1D1B" stroke-width="3.41469" stroke-linecap="round" stroke-linejoin="round"/>
<path opacity="0.8" d="M100.046 108.071L101.301 111.601" stroke="#1D1D1B" stroke-width="3.41469" stroke-linecap="round" stroke-linejoin="round"/>
<path opacity="0.5" d="M102.523 107.426L103.906 110.457" stroke="#666666" stroke-width="3.84152" stroke-linecap="round" stroke-linejoin="round"/>
<path opacity="0.6" d="M106.274 110.888L103.704 105.253" stroke="#333333" stroke-width="0.853672" stroke-linecap="round" stroke-linejoin="round"/>
<path opacity="0.5" d="M76.5911 108.993L75.7588 112.446" stroke="#666666" stroke-width="3.84152" stroke-linecap="round" stroke-linejoin="round"/>
<path opacity="0.5" d="M81.3316 109.603L80.9133 113.308" stroke="#666666" stroke-width="3.84152" stroke-linecap="round" stroke-linejoin="round"/>
<path opacity="0.6" d="M73.5439 113.223L75.3409 107.328" stroke="#333333" stroke-width="0.853672" stroke-linecap="round" stroke-linejoin="round"/>
<path d="M77.1306 91.1124L83.8362 90.8435" stroke="#E6E6E6" stroke-width="2.56102" stroke-linecap="round" stroke-linejoin="round"/>
<path opacity="0.3" d="M77.3384 91.5394L84.044 91.2662" stroke="#666666" stroke-width="1.28051" stroke-linecap="round" stroke-linejoin="round"/>
<path opacity="0.3" d="M77.2849 90.8437L83.9905 90.5748" stroke="#666666" stroke-width="0.853672" stroke-linecap="round" stroke-linejoin="round"/>
<path d="M80.5433 95.1783C81.3308 95.1191 81.8321 93.2474 81.6629 90.9978C81.4938 88.7482 80.7183 86.9725 79.9308 87.0317C79.1433 87.0909 78.642 88.9626 78.8112 91.2122C78.9803 93.4619 79.7558 95.2376 80.5433 95.1783Z" fill="#333333" stroke="#333333" stroke-width="0.687206" stroke-linecap="round" stroke-linejoin="round"/>
<path d="M74.114 95.1846H80.5251L79.9147 87.0406L73.5762 87.9967L74.114 95.1846Z" fill="#333333" stroke="#333333" stroke-width="0.687206" stroke-linecap="round" stroke-linejoin="round"/>
<path d="M74.1308 95.1741C74.8243 95.122 75.2655 93.4714 75.1163 91.4874C74.9671 89.5034 74.284 87.9373 73.5906 87.9895C72.8971 88.0416 72.4559 89.6922 72.6051 91.6762C72.7542 93.6602 73.4373 95.2263 74.1308 95.1741Z" fill="#1D1D1B" stroke="#333333" stroke-width="0.687206" stroke-linecap="round" stroke-linejoin="round"/>
<path d="M73.9043 88.0222L80.2471 87.0661" stroke="#333333" stroke-width="0.853672" stroke-linecap="round" stroke-linejoin="round"/>
<path d="M74.51 88.2954L80.8613 87.4759" stroke="#303030" stroke-width="0.853672" stroke-linecap="round" stroke-linejoin="round"/>
<path d="M75.0325 89.2258L81.3923 88.5429" stroke="#2D2D2C" stroke-width="0.853672" stroke-linecap="round" stroke-linejoin="round"/>
<path d="M75.4006 90.639L81.769 90.0883" stroke="#2A2A29" stroke-width="0.853672" stroke-linecap="round" stroke-linejoin="round"/>
<path d="M75.5195 92.3033L81.9007 91.8936" stroke="#262625" stroke-width="0.853672" stroke-linecap="round" stroke-linejoin="round"/>
<path d="M75.3711 93.7504L81.7651 93.4772" stroke="#232322" stroke-width="0.853672" stroke-linecap="round" stroke-linejoin="round"/>
<path d="M74.9968 94.7491L81.3994 94.6125" stroke="#20201E" stroke-width="0.853672" stroke-linecap="round" stroke-linejoin="round"/>
<path d="M74.4387 95.1077H80.8498" stroke="#1D1D1B" stroke-width="0.853672" stroke-linecap="round" stroke-linejoin="round"/>
<path opacity="0.3" d="M83.5945 93.0333C85.8567 93.9595 87.8714 97.2205 87.3805 99.1498C87.3805 99.1498 83.7482 99.8413 81.5798 99.5553C79.4115 99.2693 81.5756 97.9077 83.5475 97.9077L83.5902 93.0333H83.5945Z" fill="black"/>
<path opacity="0.8" d="M69.7674 106.223L68.2351 109.859" stroke="#1D1D1B" stroke-width="3.41469" stroke-linecap="round" stroke-linejoin="round"/>
<path opacity="0.5" d="M67.4015 105.369L65.8777 108.34" stroke="#666666" stroke-width="3.84152" stroke-linecap="round" stroke-linejoin="round"/>
<path opacity="0.6" d="M63.6746 108.34L66.4874 103.41" stroke="#333333" stroke-width="0.853672" stroke-linecap="round" stroke-linejoin="round"/>
<path opacity="0.6" d="M61.0482 106.649C62.7974 106.649 64.2153 105.231 64.2153 103.482C64.2153 101.733 62.7974 100.315 61.0482 100.315C59.2991 100.315 57.8811 101.733 57.8811 103.482C57.8811 105.231 59.2991 106.649 61.0482 106.649Z" fill="#1D1D1B"/>
<path opacity="0.2" d="M60.1371 105.787C46.9948 109.334 22.8786 110.179 3.20142 108.724" stroke="#1D1D1B" stroke-width="6.40254" stroke-linecap="round" stroke-linejoin="round"/>
<path class="gas-flame" d="M60.5355 103.555C47.3932 107.102 23.277 107.947 3.59985 106.491" stroke="#FF8158" stroke-width="6.40254" stroke-linecap="round" stroke-linejoin="round"/>
<path opacity="0.3" d="M59.7074 104.579C46.5651 108.126 22.4489 108.971 2.77173 107.516" stroke="#1D1D1B" stroke-width="3.84152" stroke-linecap="round" stroke-linejoin="round"/>
</svg>