<svg width="148" height="88" viewBox="0 0 148 88" fill="none" xmlns="http://www.w3.org/2000/svg">
<path d="M0.310796 44.8339L7.36161 17.9875C8.18574 14.8469 10.4933 12.3306 13.4967 11.309L45.2895 0.581767C47.5787 -0.193922 50.0328 -0.193922 52.322 0.581767L136.218 28.9039C137.463 29.3201 138.415 30.3607 138.763 31.6661L147.316 64.2829C148.524 68.9181 146.016 73.7236 141.602 75.2182L108.838 86.286C104.791 87.6481 100.432 87.6481 96.3851 86.286L6.02471 55.7692C1.59276 54.2746 -0.916229 49.4691 0.310796 44.8339Z" fill="#C47C45"/>
<path opacity="0.1" d="M134.306 30.8727L108.026 39.7458C102.22 41.7134 98.521 47.5973 99.1437 53.8785L101.653 78.9276C102.147 83.7898 106.836 86.9493 111.341 85.4169L141.595 75.2005C146.009 73.7059 148.536 68.9004 147.309 64.2652L139.269 33.6349C138.683 31.4213 136.431 30.1538 134.306 30.8727Z" fill="black"/>
<path opacity="0.35" d="M45.2929 0.581154L13.0057 11.4786C11.6505 11.9327 11.6505 13.9192 13.0057 14.3922L94.0626 41.7684C96.6815 42.6576 99.5018 42.6576 102.139 41.7684L133.456 31.1925C134.957 30.6817 134.957 28.4871 133.456 27.9762L52.3254 0.600077C50.0362 -0.175612 47.5822 -0.175612 45.2929 0.600077V0.581154Z" fill="white"/>
<path opacity="0.7" d="M15.0654 21.885L7.17212 47.8233" stroke="white" stroke-width="5.6946" stroke-miterlimit="10" stroke-linecap="round"/>
<path opacity="0.7" d="M135.41 38.9684L143.285 64.9067" stroke="white" stroke-width="5.6946" stroke-miterlimit="10" stroke-linecap="round"/>
<path opacity="0.7" d="M93.2042 47.8219L95.2004 80.136" stroke="white" stroke-width="5.6946" stroke-miterlimit="10" stroke-linecap="round"/>
<path opacity="0.75" d="M117.163 26.8777C116.32 27.5588 68.3015 11.1369 54.145 5.89623C51.3796 4.8746 48.3944 4.8746 45.6107 5.89623L22.3339 13.918" stroke="#F2F2F2" stroke-width="6.7919" stroke-linecap="round" stroke-linejoin="round"/>
</svg>
