<svg width="200" height="230" viewBox="0 0 200 230" fill="none" xmlns="http://www.w3.org/2000/svg">
<path d="M198.216 32.13C198.216 49.6617 154.186 63.8754 99.8728 63.8754C45.5593 63.8754 1.53 49.6617 1.53 32.13M198.216 33.2755C198.216 15.7437 154.186 1.53003 99.8728 1.53003C45.5593 1.53003 1.53 15.7437 1.53 33.2755" stroke="#1D1D1B" stroke-width="3.06" stroke-linecap="round" stroke-linejoin="round"/>
<g id="fluid">
  <path d="M190.53 112.53C190.53 129.098 149.564 142.53 99.03 142.53C48.4957 142.53 7.53 129.098 7.53 112.53" fill="#D9A441" fill-opacity="0.3"/>
  <path d="M190.53 112.53C190.53 95.9625 149.564 82.53 99.03 82.53C48.4957 82.53 7.53 95.9625 7.53 112.53" fill="#D9A441" fill-opacity="0.3"/>
  <path d="M190.53 112.53C190.53 129.098 149.564 142.53 99.03 142.53C48.4957 142.53 7.53 129.098 7.53 112.53" stroke="#D9A441" stroke-opacity="0.5" stroke-width="3" stroke-linecap="round" stroke-linejoin="round"/>
  <path d="M190.53 112.53C190.53 95.9625 149.564 82.53 99.03 82.53C48.4957 82.53 7.53 95.9625 7.53 112.53" stroke="#D9A441" stroke-opacity="0.5" stroke-width="3" stroke-linecap="round" stroke-linejoin="round"/>
  <path d="M100.53 143.32C151.064 143.32 192.03 129.535 192.03 112.53V198.741C192.03 215.745 151.064 229.53 100.53 229.53C49.9959 229.53 9.03 215.745 9.03 198.741V112.53C9.03 129.535 49.9959 143.32 100.53 143.32Z" fill="#D9A441" fill-opacity="0.5"/>
</g>
<path d="M22.1577 189.077C37.8488 181.007 67.1767 175.577 100.767 175.577C130.627 175.577 157.12 179.868 173.658 186.49" stroke="black" stroke-width="3.06" stroke-linecap="round"/>
<path d="M99.8722 228.077C48.6427 228.077 8.03654 214.805 8.03654 198.433V55.5922C8.03654 49.3111 6.30662 43.2125 3.11606 37.9299" stroke="#1D1D1B" stroke-width="3.06" stroke-linecap="round" stroke-linejoin="round"/>
<path d="M99.8727 228.077C150.592 228.077 191.708 214.805 191.708 198.433V55.5922C191.708 49.3111 193.438 43.2125 196.629 37.9299" stroke="#1D1D1B" stroke-width="3.06" stroke-linecap="round" stroke-linejoin="round"/>
</svg>
