<svg width="136" height="110" viewBox="0 0 136 110" fill="none" xmlns="http://www.w3.org/2000/svg">
<path d="M134.505 35.3548L134.377 80.2102C134.377 80.2102 133.701 84.2091 131.472 85.9152C129.244 87.6212 97.085 105.971 97.085 105.971C97.085 105.971 92.9209 110.263 82.263 108.222C71.6051 106.181 4.26523 92.4337 4.26523 92.4337L1.31662 90.2222L0.92955 86.6573L0.877777 42.6351L44.5301 18.0625L134.51 35.3573L134.505 35.3548Z" fill="white"/>
<path d="M134.376 35.0117L89.7279 60.1415L0.926727 42.2403L45.0573 17.3225L134.376 35.0117Z" fill="#216DE8"/>
<path d="M55.222 68.8469L76.9076 73.0258" stroke="#1D1D1B" stroke-width="1.71166" stroke-linecap="round" stroke-linejoin="round"/>
<path d="M93.8139 76.2453L130.373 83.3334C132.38 83.7549 134.266 82.2264 134.266 80.1752V18.1778L44.7771 0.855957" stroke="#4284FF" stroke-width="1.71166" stroke-linecap="round" stroke-linejoin="round"/>
<path d="M44.7771 66.8384L86.8787 74.9619" stroke="#4284FF" stroke-width="1.71166" stroke-linecap="round" stroke-linejoin="round"/>
<path d="M44.7803 54.6117V66.8376L5.05286 89.7756C3.11506 90.7199 0.859222 89.3097 0.859222 87.1549V25.8479L44.7803 0.861084V47.4867" stroke="#4284FF" stroke-width="1.71166" stroke-linecap="round" stroke-linejoin="round"/>
<path d="M5.582 92.8233L85.17 108.057C87.8375 108.619 90.3448 106.585 90.3448 103.858V43.1727L0.855835 25.8533V87.0001C0.855835 89.8155 2.82815 92.244 5.582 92.8258V92.8233Z" stroke="#1D1D1B" stroke-width="1.71166" stroke-linecap="round" stroke-linejoin="round"/>
<path d="M5.582 92.8233L85.17 108.057C87.8375 108.619 90.3448 106.585 90.3448 103.858V43.1727L0.855835 25.8533V87.0001C0.855835 89.8155 2.82815 92.244 5.582 92.8258V92.8233Z" stroke="#4284FF" stroke-width="1.71166" stroke-linecap="round" stroke-linejoin="round"/>
<path d="M130.035 86.177L96.5183 106.127C93.6683 107.52 90.3424 105.447 90.3424 102.274V43.1731L134.31 18.1123V79.3257C134.31 82.2398 132.651 84.8975 130.033 86.1795L130.035 86.177Z" stroke="#4284FF" stroke-width="1.71166" stroke-linecap="round" stroke-linejoin="round"/>
<path d="M97.0736 105.878C94.6723 107.044 91.8346 109.473 85.1707 108.058" stroke="#4284FF" stroke-width="1.71166" stroke-linecap="round" stroke-linejoin="round"/>
<path d="M40.9491 88.9033L43.0643 80.8494C43.3116 79.9072 44.0038 79.1523 44.9049 78.8458L54.4427 75.6277C55.1295 75.3949 55.8657 75.3949 56.5525 75.6277L81.7211 84.1243C82.0947 84.2492 82.3804 84.5613 82.4848 84.953L85.0506 94.738C85.4132 96.1285 84.6605 97.5702 83.3364 98.0186L73.5074 101.339C72.2932 101.748 70.9856 101.748 69.7714 101.339L42.6633 92.1839C41.3337 91.7355 40.581 90.2939 40.9491 88.9033Z" fill="#F6AF34"/>
<path opacity="0.1" d="M81.1477 84.7151L73.2636 87.377C71.522 87.9673 70.4122 89.7325 70.599 91.6168L71.3517 99.1315C71.5 100.59 72.9065 101.538 74.2581 101.078L83.3344 98.0134C84.6585 97.565 85.4167 96.1234 85.0486 94.7328L82.6366 85.5437C82.4608 84.8797 81.785 84.4994 81.1477 84.7151Z" fill="black"/>
<path opacity="0.35" d="M54.4437 75.6276L44.7576 78.8968C44.351 79.0331 44.351 79.629 44.7576 79.7709L69.0746 87.9838C69.8603 88.2505 70.7064 88.2505 71.4976 87.9838L80.8925 84.811C81.3431 84.6578 81.3431 83.9994 80.8925 83.8461L56.5535 75.6333C55.8667 75.4006 55.1305 75.4006 54.4437 75.6333V75.6276Z" fill="white"/>
<path opacity="0.7" d="M45.3755 82.0186L43.0075 89.8" stroke="white" stroke-width="1.70838" stroke-miterlimit="10" stroke-linecap="round"/>
<path opacity="0.7" d="M81.4788 87.1438L83.8413 94.9253" stroke="white" stroke-width="1.70838" stroke-miterlimit="10" stroke-linecap="round"/>
<path opacity="0.7" d="M68.8171 89.7998L69.416 99.494" stroke="white" stroke-width="1.70838" stroke-miterlimit="10" stroke-linecap="round"/>
<path opacity="0.75" d="M76.0047 83.5165C75.7519 83.7208 61.3463 78.7942 57.0993 77.2221C56.2697 76.9156 55.3742 76.9156 54.5391 77.2221L47.556 79.6286" stroke="#F2F2F2" stroke-width="2.03757" stroke-linecap="round" stroke-linejoin="round"/>
<path opacity="0.7" d="M134.505 34.8616L134.377 80.2101C134.377 80.2101 133.701 84.209 131.472 85.915C129.244 87.6211 97.085 105.971 97.085 105.971C97.085 105.971 92.9209 110.263 82.263 108.222C71.6051 106.181 4.26523 92.4335 4.26523 92.4335L1.31662 90.2221L0.92955 86.6571L0.877777 42.1419L89.7307 60.1442L134.507 34.864L134.505 34.8616Z" fill="#59A2FF"/>
</svg>
