<svg width="136" height="110" viewBox="0 0 136 110" fill="none" xmlns="http://www.w3.org/2000/svg">
<path d="M5.582 92.8233L85.17 108.057C87.8375 108.619 90.3448 106.585 90.3448 103.858V43.1727L0.855835 25.8533V87.0001C0.855835 89.8155 2.82815 92.244 5.582 92.8258V92.8233Z" stroke="#1D1D1B" stroke-width="1.71166" stroke-linecap="round" stroke-linejoin="round"/>
<path d="M5.582 92.8233L85.17 108.057C87.8375 108.619 90.3448 106.585 90.3448 103.858V43.1727L0.855835 25.8533V87.0001C0.855835 89.8155 2.82815 92.244 5.582 92.8258V92.8233Z" stroke="#4284FF" stroke-width="1.71166" stroke-linecap="round" stroke-linejoin="round"/>
<path d="M130.035 86.177L96.5183 106.127C93.6683 107.52 90.3424 105.447 90.3424 102.274V43.1731L134.31 18.1123V79.3257C134.31 82.2398 132.651 84.8975 130.033 86.1795L130.035 86.177Z" stroke="#4284FF" stroke-width="1.71166" stroke-linecap="round" stroke-linejoin="round"/>
<path d="M97.0736 105.878C94.6723 107.044 91.8346 109.473 85.1707 108.058" stroke="#4284FF" stroke-width="1.71166" stroke-linecap="round" stroke-linejoin="round"/>
</svg>
