<svg width="136" height="110" viewBox="0 0 136 110" fill="none" xmlns="http://www.w3.org/2000/svg">
<path d="M134.505 35.3548L134.377 80.2102C134.377 80.2102 133.701 84.2091 131.472 85.9152C129.244 87.6212 97.085 105.971 97.085 105.971C97.085 105.971 92.9209 110.263 82.263 108.222C71.6051 106.181 4.26523 92.4337 4.26523 92.4337L1.31662 90.2222L0.92955 86.6573L0.877777 42.6351L44.5301 18.0625L134.51 35.3573L134.505 35.3548Z" fill="white"/>
<path d="M134.376 35.0117L89.7279 60.1415L0.926727 42.2403L45.0573 17.3225L134.376 35.0117Z" fill="#216DE8"/>
<path d="M55.222 68.8469L76.9076 73.0258" stroke="#1D1D1B" stroke-width="1.71166" stroke-linecap="round" stroke-linejoin="round"/>
<path d="M93.8139 76.2453L130.373 83.3334C132.38 83.7549 134.266 82.2264 134.266 80.1752V18.1778L44.7771 0.855957" stroke="#4284FF" stroke-width="1.71166" stroke-linecap="round" stroke-linejoin="round"/>
<path d="M44.7771 66.8384L86.8787 74.9619" stroke="#4284FF" stroke-width="1.71166" stroke-linecap="round" stroke-linejoin="round"/>
<path d="M44.7803 54.6117V66.8376L5.05286 89.7756C3.11506 90.7199 0.859222 89.3097 0.859222 87.1549V25.8479L44.7803 0.861084V47.4867" stroke="#4284FF" stroke-width="1.71166" stroke-linecap="round" stroke-linejoin="round"/>
<path d="M5.582 92.8233L85.17 108.057C87.8375 108.619 90.3448 106.585 90.3448 103.858V43.1727L0.855835 25.8533V87.0001C0.855835 89.8155 2.82815 92.244 5.582 92.8258V92.8233Z" stroke="#1D1D1B" stroke-width="1.71166" stroke-linecap="round" stroke-linejoin="round"/>
<path d="M5.582 92.8233L85.17 108.057C87.8375 108.619 90.3448 106.585 90.3448 103.858V43.1727L0.855835 25.8533V87.0001C0.855835 89.8155 2.82815 92.244 5.582 92.8258V92.8233Z" stroke="#4284FF" stroke-width="1.71166" stroke-linecap="round" stroke-linejoin="round"/>
<path d="M130.035 86.177L96.5183 106.127C93.6683 107.52 90.3424 105.447 90.3424 102.274V43.1731L134.31 18.1123V79.3257C134.31 82.2398 132.651 84.8975 130.033 86.1795L130.035 86.177Z" stroke="#4284FF" stroke-width="1.71166" stroke-linecap="round" stroke-linejoin="round"/>
<path d="M97.0736 105.878C94.6723 107.044 91.8346 109.473 85.1707 108.058" stroke="#4284FF" stroke-width="1.71166" stroke-linecap="round" stroke-linejoin="round"/>
<g transform="translate(40.5, 73.2) scale(0.305)">
<path d="M0.310796 44.8339L7.36161 17.9875C8.18574 14.8469 10.4933 12.3306 13.4967 11.309L45.2895 0.581767C47.5787 -0.193922 50.0328 -0.193922 52.322 0.581767L136.218 28.9039C137.463 29.3201 138.415 30.3607 138.763 31.6661L147.316 64.2829C148.524 68.9181 146.016 73.7236 141.602 75.2182L108.838 86.286C104.791 87.6481 100.432 87.6481 96.3851 86.286L6.02471 55.7692C1.59276 54.2746 -0.916229 49.4691 0.310796 44.8339Z" fill="#C47C45"/>
<path opacity="0.1" d="M134.306 30.8727L108.026 39.7458C102.22 41.7134 98.521 47.5973 99.1437 53.8785L101.653 78.9276C102.147 83.7898 106.836 86.9493 111.341 85.4169L141.595 75.2005C146.009 73.7059 148.536 68.9004 147.309 64.2652L139.269 33.6349C138.683 31.4213 136.431 30.1538 134.306 30.8727Z" fill="black"/>
<path opacity="0.35" d="M45.2929 0.581154L13.0057 11.4786C11.6505 11.9327 11.6505 13.9192 13.0057 14.3922L94.0626 41.7684C96.6815 42.6576 99.5018 42.6576 102.139 41.7684L133.456 31.1925C134.957 30.6817 134.957 28.4871 133.456 27.9762L52.3254 0.600077C50.0362 -0.175612 47.5822 -0.175612 45.2929 0.600077V0.581154Z" fill="white"/>
<path opacity="0.7" d="M15.0654 21.885L7.17212 47.8233" stroke="white" stroke-width="5.6946" stroke-miterlimit="10" stroke-linecap="round"/>
<path opacity="0.7" d="M135.41 38.9684L143.285 64.9067" stroke="white" stroke-width="5.6946" stroke-miterlimit="10" stroke-linecap="round"/>
<path opacity="0.7" d="M93.2042 47.8219L95.2004 80.136" stroke="white" stroke-width="5.6946" stroke-miterlimit="10" stroke-linecap="round"/>
<path opacity="0.75" d="M117.163 26.8777C116.32 27.5588 68.3015 11.1369 54.145 5.89623C51.3796 4.8746 48.3944 4.8746 45.6107 5.89623L22.3339 13.918" stroke="#F2F2F2" stroke-width="6.7919" stroke-linecap="round" stroke-linejoin="round"/>
</g>
<path opacity="0.7" d="M134.505 34.8616L134.377 80.2101C134.377 80.2101 133.701 84.209 131.472 85.915C129.244 87.6211 97.085 105.971 97.085 105.971C97.085 105.971 92.9209 110.263 82.263 108.222C71.6051 106.181 4.26523 92.4335 4.26523 92.4335L1.31662 90.2221L0.92955 86.6571L0.877777 42.1419L89.7307 60.1442L134.507 34.864L134.505 34.8616Z" fill="#59A2FF"/>
</svg>
