<svg width="136" height="110" viewBox="0 0 136 110" fill="none" xmlns="http://www.w3.org/2000/svg">
<path d="M134.505 35.3548L134.377 80.2102C134.377 80.2102 133.701 84.2091 131.472 85.9152C129.244 87.6212 97.085 105.971 97.085 105.971C97.085 105.971 92.9209 110.263 82.263 108.222C71.6051 106.181 4.26523 92.4337 4.26523 92.4337L1.31662 90.2222L0.92955 86.6573L0.877777 42.6351L44.5301 18.0625L134.51 35.3573L134.505 35.3548Z" fill="white"/>
<g id="pool-water">
<path id="pool-water-fill" d="M134.376 35.0117L89.7279 60.1415L0.926727 42.2403L45.0573 17.3225L134.376 35.0117Z" fill="#216DE8"/>
<path id="pool-water-surface" opacity="0.7" d="M134.505 34.8616L134.377 80.2101C134.377 80.2101 133.701 84.209 131.472 85.915C129.244 87.6211 97.085 105.971 97.085 105.971C97.085 105.971 92.9209 110.263 82.263 108.222C71.6051 106.181 4.26523 92.4335 4.26523 92.4335L1.31662 90.2221L0.92955 86.6571L0.877777 42.1419L89.7307 60.1442L134.507 34.864L134.505 34.8616Z" fill="#59A2FF"/>
</g>
<path d="M93.8139 76.2453L130.373 83.3334C132.38 83.7549 134.266 82.2264 134.266 80.1752V18.1778L44.7771 0.855957" stroke="#4284FF" stroke-width="1.71166" stroke-linecap="round" stroke-linejoin="round"/>
<path d="M44.7771 66.8384L86.8787 74.9619" stroke="#4284FF" stroke-width="1.71166" stroke-linecap="round" stroke-linejoin="round"/>
<path d="M44.7803 54.6117V66.8376L5.05286 89.7756C3.11506 90.7199 0.859222 89.3097 0.859222 87.1549V25.8479L44.7803 0.861084V47.4867" stroke="#4284FF" stroke-width="1.71166" stroke-linecap="round" stroke-linejoin="round"/>
</svg>
